<svg xmlns="http://www.w3.org/2000/svg" width="53" height="26" viewBox="0 0 53 26" fill="none">
<path d="M0.501357 1.29831C0.767296 0.922464 1.12957 0.788138 1.58954 0.801706C2.35072 0.826129 3.11326 0.80442 3.87445 0.809847C5.11731 0.816631 6.0888 1.32409 6.77943 2.37021C7.74956 3.8383 8.74819 5.28604 9.69798 6.76635C10.314 7.72563 11.1403 8.14896 12.2827 8.14625C22.6408 8.12997 32.9989 8.14625 43.357 8.12997C45.7599 8.1259 47.6133 9.02276 48.8399 11.1381C48.9322 11.2982 49.247 11.3864 49.4681 11.4067C51.2849 11.5777 52.5753 12.9996 52.4966 14.773C52.4287 16.2859 51.2442 17.5762 49.7422 17.7662C49.4749 17.8001 49.2022 17.8178 48.9322 17.8178C45.2769 17.8205 41.6202 17.8205 37.9649 17.8191C37.163 17.8191 36.7695 17.5545 36.7817 17.0322C36.794 16.5288 37.1603 16.2968 37.9486 16.2968C41.6378 16.2968 45.3284 16.2981 49.0177 16.2954C49.9688 16.2954 50.5794 15.9331 50.8602 15.2221C51.2619 14.2086 50.6119 13.0688 49.5156 12.9617C48.7612 12.8884 47.9946 12.9264 47.2334 12.9209C46.3366 12.9155 45.4397 12.9277 44.5428 12.9155C43.9716 12.9087 43.6582 12.6238 43.6622 12.1557C43.665 11.6917 43.9797 11.4094 44.5523 11.3999C45.3895 11.3864 46.2267 11.3959 47.1778 11.3959C46.4234 10.4067 45.5415 9.87757 44.4411 9.72425C44.0571 9.67133 43.665 9.66047 43.2769 9.65912C32.969 9.6564 22.6625 9.64419 12.3547 9.66862C10.5989 9.67269 9.30857 8.99427 8.37235 7.5221C7.46463 6.09472 6.49178 4.71074 5.57184 3.2915C5.13223 2.61444 4.54472 2.29829 3.74555 2.32679C3.25709 2.34443 2.76727 2.3295 2.22454 2.3295C2.54611 3.74061 2.85546 5.10423 3.16889 6.46784C3.50132 7.91694 3.85138 9.36333 4.16345 10.8165C4.25572 11.2466 4.41311 11.4094 4.888 11.4081C10.0331 11.3877 15.1782 11.3945 20.3233 11.3972C20.5255 11.3972 20.7317 11.3945 20.9298 11.4298C21.3369 11.5017 21.5499 11.7636 21.5431 12.176C21.5364 12.5885 21.3125 12.8382 20.9027 12.8992C20.7195 12.9264 20.5309 12.9196 20.3451 12.9196C17.5011 12.9196 14.6586 12.9114 11.8146 12.9345C11.5487 12.9372 11.2339 13.0838 11.0317 13.2642C10.4646 13.7703 9.93814 14.3239 9.40761 14.8707C8.56095 15.7404 7.5379 16.1841 6.32353 16.1828C4.71568 16.1828 3.10783 16.1719 1.49999 16.1896C1.07123 16.1936 0.764583 16.0213 0.5 15.7201C0.5 15.5166 0.5 15.3144 0.5 15.1109C1.20555 14.1882 1.92739 13.2778 2.60445 12.3348C2.74692 12.1367 2.82019 11.8002 2.76863 11.5614C2.33308 9.5465 1.86769 7.53839 1.39687 5.53163C1.11193 4.32269 0.801217 3.11646 0.501357 1.90888C0.501357 1.70536 0.501357 1.50319 0.501357 1.29966V1.29831ZM9.06569 13.001C9.02634 12.9725 9.00056 12.9372 8.97478 12.9372C7.42121 12.9304 5.86899 12.9237 4.31542 12.9277C4.20958 12.9277 4.06576 12.9739 4.0047 13.0498C3.61258 13.5464 3.23809 14.058 2.78491 14.6604C3.90972 14.6604 4.92192 14.6021 5.92326 14.674C7.35065 14.7771 8.25838 14.0159 9.06433 12.9996L9.06569 13.001Z" fill="#E1D4C4"/>
<path d="M32.6488 17.9643C33.5226 18.3483 33.8129 18.9792 33.7858 19.8001C33.7722 20.2058 33.7926 20.6128 33.7804 21.0185C33.7519 22.0497 33.1142 22.6915 32.0802 22.6996C30.4059 22.7132 28.7302 22.6915 27.0559 22.7146C26.794 22.7186 26.4657 22.8055 26.2852 22.9778C24.482 24.705 22.345 25.3862 19.8769 25.1569C19.2568 25.0985 18.6259 25.146 18.0004 25.1487C17.5743 25.1501 17.1293 25.184 16.8837 24.7308C16.6205 24.2437 16.9488 23.8991 17.2066 23.5449C18.6381 21.5762 20.0723 19.6074 21.5037 17.6373C21.6014 17.503 21.6923 17.3632 21.8321 17.1583C20.8457 17.0498 19.9162 16.9426 18.9868 16.8463C16.919 16.6305 14.8498 16.4229 12.782 16.2058C12.1945 16.1434 11.8593 15.811 11.9001 15.3632C11.9408 14.8992 12.3085 14.6319 12.9028 14.693C15.7114 14.9779 18.5187 15.275 21.3273 15.5681C21.4956 15.5858 21.6693 15.5817 21.8307 15.6251C22.5349 15.8123 23.0885 15.7092 23.4657 14.9887C23.5593 14.8096 23.9202 14.6794 24.159 14.678C27.6271 14.659 31.0952 14.6645 34.5633 14.6658C34.935 14.6658 35.2227 14.8056 35.3516 15.1773C35.4805 15.5505 35.3394 15.8381 35.049 16.0688C34.2715 16.6861 33.4914 17.3008 32.6488 17.9656V17.9643ZM32.3679 16.2397C32.1766 16.2072 32.1128 16.1882 32.049 16.1882C29.6135 16.1855 27.178 16.1787 24.7425 16.2004C24.5566 16.2018 24.3178 16.3809 24.197 16.5464C22.5838 18.739 20.9868 20.9425 19.3857 23.1447C19.2907 23.2749 19.208 23.4147 19.0926 23.5897C20.094 23.5897 21.0343 23.6236 21.9718 23.5802C22.8036 23.5422 23.5336 23.1854 24.1875 22.6698C25.7805 21.4134 27.3775 20.1624 28.9731 18.9086C30.0735 18.0443 31.1739 17.18 32.3665 16.2425L32.3679 16.2397ZM32.2566 19.488C31.684 19.488 31.1047 19.3184 30.7302 19.5233C29.9907 19.9276 29.3666 20.5396 28.6936 21.066C29.8252 21.1759 30.9161 21.1813 32.007 21.1651C32.0911 21.1651 32.2404 21.0144 32.2444 20.9276C32.2675 20.4581 32.2553 19.9873 32.2553 19.488H32.2566Z" fill="#E1D4C4"/>
<path d="M24.4657 12.9197C24.3653 12.9197 24.2636 12.9238 24.1632 12.9197C23.6354 12.8953 23.3219 12.628 23.3084 12.1897C23.2934 11.7325 23.6164 11.4299 24.1632 11.4028C24.3979 11.3919 24.6353 11.3892 24.8701 11.4109C25.3545 11.4557 25.634 11.7542 25.6204 12.1897C25.6082 12.6063 25.3328 12.8763 24.8701 12.9156C24.7357 12.9265 24.6014 12.917 24.4657 12.917C24.4657 12.9183 24.4657 12.9197 24.4657 12.9211V12.9197Z" fill="#E1D4C4"/>
<path d="M32.5392 12.9305C32.3899 12.9183 32.2013 12.9251 32.0222 12.8858C31.6667 12.8071 31.4741 12.5669 31.4578 12.206C31.4401 11.8234 31.6124 11.5167 31.991 11.4584C32.3831 11.3973 32.797 11.4014 33.1932 11.4502C33.5771 11.4977 33.7712 11.8003 33.763 12.1734C33.7549 12.5683 33.5405 12.8396 33.128 12.9007C32.9462 12.9278 32.759 12.9211 32.5378 12.9319L32.5392 12.9305Z" fill="#E1D4C4"/>
<path d="M36.6937 12.9205C35.862 12.9205 35.5187 12.6953 35.5255 12.1525C35.5323 11.6152 35.8796 11.3954 36.7154 11.3981C36.7996 11.3981 36.8837 11.3954 36.9678 11.4009C37.5119 11.4307 37.8525 11.7319 37.8457 12.1756C37.8389 12.6193 37.4983 12.9015 36.9461 12.9205C36.862 12.9232 36.7778 12.9205 36.6937 12.9205Z" fill="#E1D4C4"/>
<path d="M40.7324 12.9281C40.5642 12.9186 40.3932 12.9253 40.229 12.8982C39.8247 12.8304 39.6022 12.5821 39.5967 12.1723C39.5927 11.7625 39.807 11.4885 40.2114 11.4355C40.5424 11.3921 40.8844 11.3935 41.2182 11.4206C41.6496 11.4559 41.883 11.734 41.9115 12.1547C41.9386 12.5468 41.6211 12.867 41.1856 12.9104C41.035 12.9253 40.883 12.9131 40.731 12.9131C40.731 12.9186 40.731 12.924 40.731 12.9294L40.7324 12.9281Z" fill="#E1D4C4"/>
<path d="M28.5053 12.9287C28.3371 12.9192 28.1675 12.9232 28.0019 12.8961C27.6179 12.8323 27.4049 12.5894 27.3873 12.2068C27.3683 11.8038 27.5596 11.5067 27.9653 11.4416C28.2936 11.3886 28.6369 11.39 28.9693 11.4158C29.4239 11.4511 29.6952 11.7563 29.6925 12.1688C29.6898 12.5827 29.4117 12.8703 28.9585 12.9124C28.8079 12.9259 28.6559 12.9151 28.5039 12.9151C28.5039 12.9205 28.5039 12.9246 28.5039 12.93L28.5053 12.9287Z" fill="#E1D4C4"/>
</svg>