<svg xmlns="http://www.w3.org/2000/svg" width="25" height="42" viewBox="0 0 25 42" fill="none">
<path d="M2.13006 42C0.910689 41.6045 0.495462 40.7685 0.500037 39.5709C0.526347 32.4632 0.521771 25.3545 0.505757 18.2468C0.502325 16.8531 0.93471 15.6566 1.92302 14.6234C2.84041 13.6658 3.70404 12.6621 4.61685 11.7001C5.11673 11.1742 5.34092 10.5913 5.33521 9.87912C5.3169 7.10486 5.3272 4.32951 5.32834 1.55416C5.32949 0.477107 5.82593 0.00158265 6.94464 0.000486968C7.70303 0.000486968 8.46028 -0.00060871 9.21867 0.000486968C10.2287 0.00267832 10.7435 0.491351 10.7457 1.4665C10.7492 4.22761 10.7606 6.98872 10.7389 9.74983C10.7332 10.531 10.9574 11.1764 11.5201 11.7571C12.4227 12.6895 13.26 13.6811 14.1568 14.6179C15.1119 15.615 15.5969 16.7665 15.5718 18.1164C15.5706 18.1953 15.5866 18.2753 15.6004 18.4101C15.7788 18.4101 15.9458 18.4101 16.1117 18.4101C18.3708 18.4101 20.6311 18.4101 22.8903 18.4101C23.6235 18.4101 23.7745 18.5613 23.8489 19.2702C24.0479 21.1591 24.2664 23.047 24.4643 24.9359C24.8314 28.4235 22.3321 31.5034 18.6842 32.0589C18.4646 32.0929 18.3182 32.1093 18.3194 32.3832C18.3296 35.1312 18.3274 37.8781 18.3296 40.626C18.3296 40.6523 18.3399 40.6797 18.3594 40.7685C18.6957 40.7685 19.0469 40.7685 19.398 40.7685C20.113 40.7685 20.8279 40.7739 21.5428 40.7663C21.9043 40.7619 22.236 40.7904 22.3938 41.1684C22.554 41.553 22.3035 41.7798 22.0392 41.9989H2.13006V42ZM1.80063 34.7707C1.80063 34.9416 1.80063 35.0611 1.80063 35.1805C1.80063 36.7254 1.80063 38.2692 1.80063 39.8141C1.80063 40.5417 2.0397 40.7685 2.80266 40.7685C6.29149 40.7685 9.78146 40.7685 13.2703 40.7685C14.0573 40.7685 14.2815 40.5515 14.2815 39.7845C14.2838 37.912 14.2815 36.0395 14.2838 34.167C14.2838 34.0037 14.238 33.7967 14.3226 33.686C14.4668 33.4975 14.691 33.2587 14.8923 33.2488C15.0948 33.239 15.3521 33.4515 15.5054 33.6301C15.6026 33.743 15.5672 33.9709 15.5683 34.1473C15.5718 35.9376 15.574 37.728 15.5683 39.5194C15.5672 39.9259 15.5271 40.3324 15.5054 40.7444H17.0085C17.0199 40.6688 17.0348 40.6173 17.0348 40.5647C17.0359 37.8441 17.0348 35.1246 17.0428 32.4041C17.0428 32.1499 16.9353 32.0973 16.695 32.0622C13.0781 31.5363 10.5753 28.5385 10.8761 25.0521C11.042 23.1335 11.2879 21.2205 11.487 19.3041C11.5648 18.5613 11.718 18.4123 12.505 18.4112C13.085 18.4112 13.6649 18.4112 14.2632 18.4112C14.3501 17.3188 14.0836 16.405 13.3606 15.6216C12.5851 14.7812 11.821 13.9309 11.0432 13.0916C10.3237 12.3148 9.54239 11.5741 9.48748 10.4576H6.61177C6.50997 11.2893 6.11304 11.9478 5.55254 12.5438C4.60656 13.5496 3.69145 14.5829 2.75119 15.5942C2.11405 16.2801 1.80177 17.0755 1.80063 17.9871C1.80063 19.108 1.80063 20.2289 1.80063 21.3498C1.80063 21.4539 1.81778 21.5579 1.82808 21.6631C2.34054 21.7902 3.13667 21.4747 3.14811 22.2997C3.15955 23.1587 2.33596 22.8366 1.83494 22.9725V25.6481C2.09575 25.6481 2.32223 25.6481 2.54872 25.6481C3.67887 25.6481 4.80788 25.6426 5.93803 25.6547C6.3647 25.6591 6.60262 25.8924 6.60834 26.2496C6.61406 26.6035 6.37156 26.8391 5.96091 26.8742C5.84766 26.884 5.73213 26.8786 5.61774 26.8786C4.50246 26.8786 3.38718 26.8786 2.2719 26.8796C2.12205 26.8796 1.97335 26.8972 1.8338 26.9059V28.281C2.73632 28.281 3.60566 28.2766 4.47615 28.2832C4.96916 28.2865 5.22654 28.4991 5.23454 28.8793C5.24141 29.2726 4.96688 29.5027 4.46014 29.5104C3.93167 29.518 3.40205 29.5126 2.87244 29.5126C2.52356 29.5126 2.17467 29.5126 1.83037 29.5126V33.503C1.89786 33.5195 1.93903 33.5381 1.97907 33.5381C3.75208 33.5403 5.52509 33.5468 7.29924 33.5381C7.82199 33.5348 8.08051 33.2543 8.08051 32.713C8.08509 29.7328 8.08509 26.7536 8.08051 23.7734C8.08051 23.1719 7.82771 22.944 7.18371 22.9374C6.58318 22.9308 5.98264 22.944 5.3821 22.9308C4.92341 22.921 4.63515 22.6558 4.65117 22.2942C4.66604 21.9458 4.94171 21.7168 5.38782 21.708C5.95976 21.6982 6.5317 21.7037 7.10364 21.7048C8.58725 21.7091 9.36852 22.4597 9.36966 23.8884C9.37195 26.7865 9.37195 29.6835 9.36966 32.5816C9.36966 34.0224 8.57581 34.7718 7.06132 34.7729C5.33177 34.7729 3.60223 34.7729 1.80063 34.7729V34.7707ZM23.1385 24.9392H12.1939C11.8542 26.9092 12.9031 29.0162 14.7493 30.1053C16.6733 31.2415 19.096 31.1594 20.9274 29.895C22.5723 28.7587 23.5514 26.5805 23.1397 24.9392H23.1385ZM22.9818 23.6562C22.9955 23.5959 23.0161 23.5576 23.0127 23.5203C22.8869 22.3118 22.753 21.1043 22.6341 19.8947C22.6077 19.6317 22.4396 19.6405 22.2451 19.6405C19.2024 19.6416 16.1597 19.6449 13.117 19.635C12.8207 19.635 12.7224 19.7314 12.6972 20.0021C12.624 20.8041 12.5245 21.604 12.4398 22.4049C12.3964 22.8169 12.3643 23.2299 12.3266 23.6419H14.2838C14.2838 23.4568 14.2838 23.3088 14.2838 23.1598C14.2838 22.6821 14.2757 22.2033 14.2883 21.7267C14.2998 21.295 14.5388 21.0539 14.9232 21.0539C15.3041 21.0539 15.542 21.2961 15.5683 21.7245C15.5786 21.9009 15.5718 22.0795 15.5718 22.257C15.5718 22.7172 15.5718 23.1763 15.5718 23.6573H22.9829L22.9818 23.6562ZM6.64723 3.88138V9.16473H9.436V3.88138H6.64723ZM6.65066 1.25175V2.59505H9.43257V1.25175H6.65066Z" fill="#E1D4C4"/>
</svg>