<svg xmlns="http://www.w3.org/2000/svg" width="40" height="36" viewBox="0 0 40 36" fill="none">
<path d="M0.5 31.9638C1.36163 31.9746 2.22325 31.9886 3.08488 31.9962C3.61678 32.0005 4.14867 31.9962 4.80922 31.9962C4.62543 31.8427 4.52921 31.7616 4.43192 31.6816C2.05136 29.7378 1.18217 26.4989 2.25028 23.6167C2.41677 23.167 2.67299 22.9086 3.15948 22.9086C3.80164 22.9086 4.44489 22.9086 5.11516 22.9086C5.18651 22.621 5.26003 22.248 5.37138 21.8869C5.90111 20.1648 6.94004 18.8329 8.45356 17.8631C8.79302 17.6458 9.10978 17.6156 9.43627 17.8631C9.90979 18.221 10.3822 18.581 10.9033 18.9767C10.9033 18.8318 10.9033 18.6999 10.9033 18.568C10.9033 16.4058 10.9033 14.2437 10.9033 12.0815C10.9033 11.382 11.0547 11.2296 11.7498 11.1236C14.1812 10.7528 16.6114 10.3712 19.0428 9.99931C19.2234 9.9712 19.3844 9.94742 19.3444 9.71607C19.3044 9.48579 19.5001 9.18958 19.0904 9.06417C17.8579 8.68687 17.0806 7.84362 16.8212 6.58416C16.5877 5.45226 16.925 4.39387 17.392 3.37441C17.9001 2.26629 18.6082 1.29331 19.4288 0.400335C19.7844 0.0133057 20.1628 -0.0299378 20.4839 0.314929C21.7553 1.68142 22.7855 3.1917 23.1639 5.06307C23.5434 6.93659 22.6763 8.45768 20.8807 9.07498C20.4882 9.21012 20.7012 9.47606 20.6623 9.74417C21.5455 9.61228 22.3931 9.48796 23.2396 9.35822C24.8937 9.10417 26.5477 8.84687 28.2018 8.59173C28.8007 8.49984 29.0904 8.73876 29.0937 9.3539C29.1002 10.6761 29.0958 11.9993 29.0958 13.3215C29.0958 13.4469 29.0958 13.5734 29.0958 13.768C29.2677 13.768 29.4126 13.768 29.5586 13.768C31.3359 13.768 33.1132 13.7561 34.8894 13.7712C37.5564 13.7939 39.5921 15.8815 39.4873 18.5064C39.431 19.9345 38.8018 21.0891 37.671 21.9648C37.5608 22.0502 37.4462 22.128 37.3035 22.2318C38.5218 23.0351 39.271 24.1302 39.4537 25.5756C39.6343 27.0135 39.1737 28.2491 38.1554 29.3897C38.4105 29.3897 38.5921 29.3832 38.7727 29.3908C39.2559 29.4135 39.4916 29.6502 39.4959 30.1367C39.5024 30.9248 39.5002 31.714 39.4959 32.5021C39.4937 33.06 39.2689 33.287 38.7132 33.3022C38.5618 33.3065 38.4105 33.3022 38.1986 33.3022C38.1986 33.8643 38.1986 34.4049 38.1986 34.9443C38.1986 35.7238 38.0127 35.9097 37.2321 35.9108C36.5597 35.9108 35.8862 35.8924 35.2137 35.9173C34.7305 35.9346 34.4332 35.7465 34.2364 35.3022C33.9737 34.7108 33.6753 34.1346 33.3683 33.5659C33.3045 33.4481 33.1348 33.3162 33.0126 33.314C31.7813 33.2957 30.5499 33.3032 29.3196 33.3054C29.2591 33.3054 29.1985 33.3259 29.0958 33.3454C29.0958 33.9194 29.0991 34.4892 29.0958 35.0589C29.0915 35.6903 28.8742 35.9108 28.2472 35.9108C20.1488 35.9119 12.0514 35.9108 3.95299 35.9151C3.53677 35.9151 3.26218 35.7681 3.08272 35.38C2.80164 34.7692 2.47623 34.1789 2.18974 33.5703C2.09352 33.367 1.97568 33.287 1.75406 33.3C1.33784 33.3238 0.919462 33.3259 0.502162 33.3367C0.5 32.8794 0.5 32.4221 0.5 31.9638ZM12.2039 12.3723V12.8491C12.2039 15.2015 12.2633 17.5561 12.1779 19.9053C12.1379 21.0199 12.6741 21.9496 12.7736 22.9021C13.4536 22.9021 14.0731 22.9021 14.6925 22.9021C15.2039 22.9021 15.485 23.1583 15.6601 23.6437C16.7001 26.5162 15.8536 29.6924 13.5012 31.6502C13.3909 31.7421 13.2806 31.833 13.1703 31.9238C13.1822 31.9508 13.193 31.9778 13.2049 32.0048H17.3855V33.3043C16.9542 33.3043 16.5379 33.2989 16.1228 33.3086C16.0179 33.3108 15.859 33.3313 15.8212 33.3994C15.606 33.7757 15.4212 34.1692 15.2104 34.5876H19.9725V33.3054C19.8082 33.3054 19.6698 33.3076 19.5304 33.3054C18.9174 33.2946 18.7023 33.0827 18.7012 32.4773C18.699 31.7021 18.6969 30.9259 18.7012 30.1508C18.7044 29.6427 18.9369 29.4102 19.4482 29.3919C19.619 29.3854 19.7909 29.3919 20.0331 29.3919C18.7866 27.9681 18.3574 26.4113 18.952 24.6729C19.5498 22.9259 20.8482 21.9496 22.6677 21.5983C22.5769 21.4934 22.5196 21.4264 22.4612 21.3605C20.1909 18.7864 21.3909 14.7669 24.7207 13.9399C25.5283 13.7388 26.4061 13.8199 27.2526 13.7712C27.4234 13.7615 27.5942 13.755 27.7694 13.7474V9.97661C22.5834 10.7755 17.4255 11.5701 12.2039 12.3745V12.3723ZM29.7315 25.4837C29.5553 25.4837 29.4169 25.4837 29.2796 25.4837C27.9596 25.4837 26.6407 25.4805 25.3207 25.4848C24.8353 25.487 24.5564 25.7356 24.5585 26.1432C24.5607 26.541 24.8266 26.7821 25.2926 26.7821C27.4494 26.7854 29.6061 26.7929 31.764 26.7756C32.8115 26.767 33.631 25.9053 33.6397 24.8599C33.6483 23.7929 32.8353 22.8967 31.7769 22.8902C28.884 22.8729 25.991 22.8621 23.098 22.8945C21.4277 22.9129 20.0504 24.3443 20.0017 26.0145C19.9488 27.8437 21.3282 29.3378 23.1596 29.3756C24.7834 29.4092 26.4072 29.3875 28.0321 29.3864C30.3921 29.3864 32.7521 29.4124 35.1121 29.3681C36.9521 29.3346 38.3943 27.6221 38.1845 25.821C37.9543 23.8426 36.1737 22.6124 34.3467 22.9302C34.3607 22.9648 34.3705 23.0005 34.3889 23.0307C35.0862 24.1367 35.1575 25.287 34.5186 26.4243C33.871 27.5767 32.8375 28.0945 31.5186 28.087C29.4634 28.0751 27.4072 28.0848 25.352 28.0816C25.1499 28.0816 24.9423 28.0783 24.7477 28.0318C23.7693 27.8005 23.1672 26.9172 23.2699 25.8881C23.3628 24.9529 24.1801 24.2005 25.1639 24.1864C26.432 24.1691 27.7012 24.181 28.9704 24.181C29.2202 24.181 29.4699 24.181 29.7326 24.181V25.4816L29.7315 25.4837ZM31.0278 17.6804C30.8569 17.6804 30.7315 17.6804 30.6061 17.6804C29.2613 17.6804 27.9153 17.6772 26.5704 17.6826C26.1283 17.6848 25.8688 17.9226 25.858 18.3042C25.8472 18.6967 26.1207 18.9767 26.5672 18.9788C28.725 18.9853 30.8829 18.9929 33.0397 18.9734C33.8883 18.9658 34.5932 18.4102 34.8462 17.6329C35.257 16.3766 34.3661 15.0977 33.0213 15.0837C30.6105 15.0599 28.1985 15.0761 25.7866 15.0804C25.5845 15.0804 25.3791 15.0999 25.1823 15.142C23.5715 15.4934 22.4612 16.9745 22.6039 18.5713C22.7563 20.274 24.1131 21.5669 25.8223 21.5767C28.8677 21.5951 31.9142 21.5972 34.9607 21.5767C36.9932 21.5626 38.4667 19.7377 38.1197 17.7248C37.9078 16.4945 36.8516 15.3831 35.7035 15.2047C35.7294 15.2577 35.7456 15.301 35.7683 15.3388C37.0613 17.4599 35.5921 20.3032 32.8624 20.2848C30.7813 20.2718 28.6991 20.2848 26.618 20.2772C26.3683 20.2772 26.1077 20.2415 25.871 20.1648C24.965 19.8707 24.432 18.9658 24.5726 18.0037C24.7034 17.1096 25.4872 16.3993 26.4202 16.3853C27.8537 16.3648 29.2883 16.3766 30.7229 16.3766C30.8202 16.3766 30.9175 16.3896 31.0278 16.3983V17.6783V17.6804ZM9.19735 31.9832C12.9822 31.8081 15.5974 28.1994 14.5877 24.5562C14.5109 24.2805 14.3952 24.1756 14.0947 24.1789C10.3357 24.2167 7.55734 27.7962 8.46978 31.4384C8.56563 31.8203 8.80816 32.0023 9.19735 31.9843V31.9832ZM8.13788 26.1745C6.92382 24.8567 5.45895 24.1972 3.70002 24.1799C3.46759 24.1778 3.39515 24.2848 3.3411 24.4751C2.96056 25.8059 3.01677 27.1194 3.55515 28.3918C4.25137 30.0351 5.46435 31.1324 7.20058 31.7335C6.75842 29.7335 7.06761 27.9032 8.13788 26.1745ZM20.0115 31.9638H38.1737V30.7259H20.0115V31.9638ZM8.95843 25.1324C9.66438 24.4048 10.4492 23.8588 11.3368 23.4578C11.4201 23.4199 11.4828 23.2059 11.4644 23.088C11.219 21.4945 10.4417 20.2113 9.15302 19.248C9.06546 19.1831 8.85032 19.1745 8.766 19.2372C7.44058 20.2232 6.64814 21.5356 6.42652 23.1799C6.41463 23.2718 6.4849 23.4372 6.56058 23.4697C7.45572 23.8588 8.23734 24.4102 8.95843 25.1324ZM20.6558 7.742C21.4644 7.48794 21.9974 6.69226 21.9445 5.84145C21.8428 4.22522 20.9834 2.969 19.9909 1.70196C19.6796 2.13872 19.3844 2.5171 19.1261 2.91927C18.5661 3.79279 18.1282 4.71604 18.0579 5.77658C17.9985 6.66848 18.5358 7.51389 19.3542 7.73768V6.62956H20.6558V7.742ZM3.52164 33.3281C3.70759 33.7065 3.85678 34.0546 4.05029 34.3768C4.11732 34.4881 4.29245 34.593 4.42219 34.5984C4.95408 34.6232 5.48814 34.6092 6.02111 34.6092C8.48383 34.6092 10.9465 34.6113 13.4093 34.6038C13.5433 34.6038 13.7433 34.5616 13.7974 34.4697C14.0104 34.1151 14.1758 33.7335 14.3758 33.3281H3.52164ZM24.3099 34.5843H27.7585V33.3043C26.8666 33.3043 26.0061 33.3 25.1456 33.3108C25.0537 33.3119 24.9207 33.3832 24.8774 33.4611C24.6818 33.8113 24.512 34.1768 24.3088 34.5832L24.3099 34.5843ZM34.711 33.3281C34.9186 33.7421 35.1002 34.1151 35.297 34.4795C35.3305 34.5411 35.4332 34.5995 35.5045 34.6016C35.9564 34.6124 36.4094 34.607 36.871 34.607V33.3281H34.711ZM23.4774 33.3367H21.3174V34.607C21.7909 34.607 22.2428 34.6113 22.6958 34.6027C22.7607 34.6016 22.8558 34.5605 22.8839 34.5086C23.0839 34.1346 23.2699 33.7519 23.4774 33.3367Z" fill="#E1D4C4"/>
<path d="M14.7818 18.9589H13.5342V13.7988H14.7818V18.9589Z" fill="#E1D4C4"/>
<path d="M13.5227 21.5603V20.3105H14.7778V21.5603H13.5227Z" fill="#E1D4C4"/>
</svg>