<svg xmlns="http://www.w3.org/2000/svg" width="39" height="32" viewBox="0 0 39 32" fill="none">
<path d="M3.14861 17.6149V12.2155C3.06559 12.1861 2.97206 12.1472 2.87643 12.1199C1.22447 11.6638 0.0422419 10.201 0.0180719 8.48707C-0.0124033 6.32123 0.00441062 4.15434 0.00651236 1.98745C0.00651236 1.53768 0.20933 1.3191 0.594998 1.31279C0.99643 1.30649 1.20765 1.53242 1.20976 2.00216C1.21396 3.72243 1.21186 5.4427 1.21186 7.16297C1.21186 7.30589 1.21186 7.44776 1.21186 7.62431H2.20178C2.20178 7.46773 2.20178 7.32691 2.20178 7.18609C2.20178 5.46582 2.19967 3.74555 2.20388 2.02528C2.20388 1.57236 2.36886 1.35693 2.7167 1.317C3.14966 1.26655 3.40712 1.51351 3.40817 2.00426C3.41238 3.72453 3.41027 5.44481 3.41027 7.16508C3.41027 7.30694 3.41027 7.44986 3.41027 7.62536H4.12697C4.13432 7.47508 4.14798 7.32376 4.14798 7.17243C4.15008 5.46582 4.14693 3.75816 4.15114 2.05155C4.15219 1.56815 4.31927 1.35168 4.68288 1.317C5.11373 1.27601 5.36489 1.52507 5.36594 2.01793C5.37014 3.7382 5.36804 5.45847 5.36804 7.17874C5.36804 7.32061 5.36804 7.46247 5.36804 7.63166H6.3422C6.3422 7.47403 6.3422 7.32166 6.3422 7.17033C6.3422 5.47633 6.34009 3.78233 6.3443 2.08833C6.34535 1.56185 6.524 1.33171 6.92227 1.31489C7.33632 1.29703 7.56541 1.53768 7.56646 2.02003C7.57066 3.51646 7.57591 5.01395 7.5654 6.51039C7.56015 7.32271 7.61269 8.14974 7.48449 8.94525C7.22282 10.5604 6.26443 11.6292 4.69023 12.1283C4.57569 12.1651 4.4128 12.3122 4.41175 12.4089C4.39494 14.1281 4.39914 15.8484 4.39914 17.5991C4.51474 17.6118 4.61352 17.6286 4.7123 17.6307C5.36279 17.6443 5.51726 17.7757 5.57611 18.4283C5.69486 19.7482 5.80205 21.0702 5.91449 22.3911C6.08894 24.4308 6.25602 26.4716 6.44308 28.5103C6.51874 29.3342 6.42942 30.1076 5.93971 30.8001C5.28607 31.7239 4.15744 32.1358 3.10132 31.8374C2.02418 31.5326 1.14565 30.5206 1.12779 29.3993C1.11203 28.4315 1.21816 27.4605 1.29803 26.4937C1.51451 23.9044 1.7478 21.3161 1.97058 18.7267C2.06096 17.679 2.06096 17.6748 3.14966 17.617L3.14861 17.6149ZM3.19379 18.9096C3.17488 19.0073 3.16437 19.0462 3.16122 19.084C2.87959 22.389 2.59585 25.694 2.31737 28.999C2.2354 29.9742 2.90376 30.7518 3.8033 30.7487C4.66711 30.7455 5.3218 29.9164 5.23773 28.9485C5.11583 27.5383 5.00444 26.1259 4.88569 24.7156C4.73122 22.8735 4.57674 21.0313 4.4086 19.1902C4.39914 19.0903 4.27094 18.9295 4.18581 18.9211C3.86425 18.8896 3.53743 18.9085 3.19379 18.9085V18.9096ZM1.30223 8.89901C1.58071 10.2326 2.67782 11.088 3.97249 11.0144C5.07485 10.9514 6.15199 9.94988 6.23185 8.89901H1.30223Z" fill="#E1D4C4"/>
<path d="M31.6608 17.9933C31.6692 24.702 26.2551 30.1466 19.5569 30.1634C12.8419 30.1802 7.40991 24.7577 7.38995 18.0175C7.36998 11.294 12.7988 5.83474 19.5128 5.82423C26.2194 5.81373 31.6513 11.2562 31.6608 17.9933ZM19.559 7.11785C13.5985 7.07582 8.65835 11.9655 8.5995 17.9649C8.5417 23.9811 13.4366 28.957 19.4518 28.9938C25.4775 29.0305 30.4145 24.1461 30.4512 18.111C30.488 12.0958 25.5983 7.16094 19.559 7.11785Z" fill="#E1D4C4"/>
<path d="M35.7235 17.3915C35.3399 17.3915 34.9753 17.3946 34.6117 17.3915C34.3763 17.3894 34.1378 17.3968 33.9055 17.3663C33.0291 17.2538 32.594 17.0111 32.6518 15.9087C32.8673 11.7557 33.5881 7.72876 35.4839 3.98032C36.1312 2.69931 36.9068 1.49922 37.8452 0.413674C37.986 0.250789 38.2183 0.117329 38.4284 0.076345C38.7479 0.0143438 38.9802 0.249738 38.997 0.57866C39.0064 0.761511 38.9896 0.946464 38.9896 1.12931C38.9896 10.1374 38.9896 19.1454 38.9854 28.1545C38.9854 28.4666 38.978 28.7913 38.8992 29.0898C38.6166 30.1637 37.5646 30.8163 36.4822 30.6209C35.3841 30.4233 34.6264 29.4565 34.721 28.3174C34.8418 26.8525 34.9953 25.3907 35.135 23.9268C35.3315 21.8755 35.528 19.8243 35.7225 17.773C35.733 17.6595 35.7235 17.5439 35.7235 17.3894V17.3915ZM37.8158 16.0527V2.54904C35.8917 4.263 33.3286 13.1996 33.9223 16.0527H37.8158ZM37.0539 17.2706C37.0318 17.4482 37.0056 17.6143 36.9898 17.7803C36.87 19.0466 36.7513 20.314 36.6336 21.5803C36.4234 23.827 36.209 26.0727 36.0062 28.3195C35.9558 28.8754 36.3309 29.3199 36.8479 29.364C37.345 29.4071 37.7843 29.0015 37.8337 28.4508C37.8421 28.3594 37.8379 28.2669 37.8389 28.1755C37.8389 24.6845 37.8389 21.1935 37.8389 17.7026V17.2696H37.0539V17.2706Z" fill="#E1D4C4"/>
<path d="M19.5261 26.4867C14.814 26.4888 11.0456 22.7498 11.0393 18.0661C11.033 13.354 14.8445 9.54463 19.545 9.56355C24.2655 9.58246 28.0182 13.3246 28.0129 18.0062C28.0066 22.7057 24.2246 26.4857 19.5272 26.4878L19.5261 26.4867ZM12.273 17.9852C12.2678 22.0184 15.4803 25.2604 19.4956 25.274C23.5331 25.2877 26.775 22.0521 26.7792 18.0062C26.7834 13.9583 23.5467 10.709 19.5167 10.7153C15.5013 10.7216 12.2783 13.9562 12.273 17.9852Z" fill="#E1D4C4"/>
<path d="M36.3071 28.2394C36.3239 27.9199 36.6265 27.6373 36.9313 27.6562C37.2571 27.6761 37.5387 27.9672 37.5261 28.2709C37.5124 28.5956 37.2255 28.8836 36.9229 28.8783C36.5845 28.871 36.2903 28.5662 36.3071 28.2405V28.2394Z" fill="#E1D4C4"/>
</svg>