<svg xmlns="http://www.w3.org/2000/svg" width="304" height="54" viewBox="0 0 304 54" fill="none">
<path d="M261.949 0.425781H259.627L246.308 37.6258H248.103C248.32 37.6258 248.5 37.5557 248.655 37.4155C248.807 37.2753 248.917 37.107 248.978 36.9154L252.798 26.1106L253.509 24.1104L260.134 5.34216C260.256 5.02904 260.371 4.68322 260.477 4.30467C260.583 3.92613 260.686 3.52889 260.776 3.10829C260.992 3.96819 261.213 4.70191 261.442 5.31412L268.067 24.1104L268.778 26.1106L270.111 29.882H267.298C267.298 29.882 267.286 29.882 267.277 29.882C266.689 29.882 266.21 30.4288 266.21 31.1017C266.21 31.7747 266.664 32.2888 267.233 32.3168H267.257C267.265 32.3168 267.269 32.3168 267.277 32.3168C267.286 32.3168 267.29 32.3168 267.298 32.3168H270.97L272.593 36.9107C272.671 37.121 272.777 37.2939 272.916 37.4248C273.056 37.5557 273.231 37.6211 273.444 37.6211H275.26L261.949 0.425781Z" fill="#E2D5C4"/>
<path d="M62.9243 0.425781H60.5566V37.6211H62.9243V0.425781Z" fill="#E2D5C4"/>
<path d="M188.02 0.425781H185.653V37.6211H188.02V0.425781Z" fill="#E2D5C4"/>
<path d="M123.142 0.425781L109.823 37.6258H111.618C111.831 37.6258 112.015 37.5557 112.17 37.4155C112.322 37.2753 112.432 37.107 112.493 36.9154L116.313 26.1106L117.024 24.1104L123.649 5.34216C123.771 5.02904 123.886 4.68322 123.992 4.30467C124.099 3.92613 124.201 3.52889 124.291 3.10829C124.508 3.96819 124.728 4.70191 124.957 5.31412L131.582 24.1104L132.293 26.1106L133.626 29.882H130.813C130.813 29.882 130.801 29.882 130.797 29.882C130.208 29.882 129.729 30.4288 129.729 31.1017C129.729 31.7747 130.183 32.2888 130.752 32.3168H130.776C130.784 32.3168 130.789 32.3168 130.797 32.3168C130.805 32.3168 130.809 32.3168 130.817 32.3168H134.489L136.113 36.9107C136.19 37.121 136.297 37.2939 136.436 37.4248C136.575 37.5557 136.751 37.6211 136.963 37.6211H138.779L125.464 0.425781H123.142Z" fill="#E2D5C4"/>
<path d="M29.7933 31.6025C29.0286 31.6025 28.4111 32.3082 28.4111 33.1821C28.4111 34.0561 29.0286 34.7617 29.7933 34.7617C30.558 34.7617 31.1754 34.0561 31.1754 33.1821C31.1754 32.3082 30.558 31.6025 29.7933 31.6025Z" fill="#E2D5C4"/>
<path d="M160.987 20.4839C162.414 20.2922 163.698 19.9137 164.839 19.3529C165.979 18.7921 166.957 18.0677 167.758 17.1845C168.564 16.3012 169.181 15.2684 169.611 14.0954C170.04 12.9224 170.253 11.6232 170.253 10.2071C170.253 7.0012 169.32 4.56638 167.46 2.91201C165.595 1.25764 162.794 0.425781 159.052 0.425781H150.727V8.52472C150.727 8.59949 150.723 8.66025 150.723 8.70698C150.723 9.45939 151.254 10.0669 151.913 10.0669C152.571 10.0669 153.103 9.45939 153.103 8.70698C153.103 8.67894 153.103 8.63688 153.103 8.59482V2.55683H159.061C161.96 2.55683 164.164 3.19709 165.673 4.47759C167.182 5.75809 167.938 7.7209 167.938 10.366C167.938 11.6652 167.73 12.8289 167.317 13.8617C166.904 14.8945 166.298 15.7825 165.509 16.5162C164.72 17.2499 163.755 17.8154 162.61 18.2126C161.469 18.6052 160.177 18.8061 158.733 18.8061H158.386V20.8344C158.451 20.839 158.582 20.9465 158.746 21.026C158.905 21.1054 159.052 21.2129 159.183 21.3531C159.314 21.4933 159.441 21.6615 159.564 21.8532L170.007 36.9434C170.159 37.2052 170.326 37.3874 170.502 37.4809C170.678 37.579 170.895 37.6258 171.156 37.6258H173.181L161.976 21.5354C161.686 21.0961 161.355 20.7456 160.987 20.4839Z" fill="#E2D5C4"/>
<path d="M151.835 34.7559C151.071 34.7559 150.453 35.4615 150.453 36.3355C150.453 37.2094 151.071 37.9151 151.835 37.9151C152.6 37.9151 153.217 37.2094 153.217 36.3355C153.217 35.4615 152.6 34.7559 151.835 34.7559Z" fill="#E2D5C4"/>
<path d="M91.0696 18.5631C92.1287 18.264 93.0651 17.8294 93.8871 17.2639C94.709 16.6938 95.396 16.0255 95.9562 15.2544C96.5164 14.4833 96.9458 13.6421 97.2443 12.7308C97.5428 11.8194 97.6941 10.8708 97.6941 9.88935C97.6941 8.39854 97.4774 7.06663 97.048 5.89362C96.6186 4.7206 95.9603 3.72518 95.0688 2.91201C94.1815 2.09885 93.0529 1.47729 91.6871 1.05669C90.3213 0.636083 88.7101 0.425781 86.8577 0.425781H77.4976V8.3892C77.4976 8.3892 77.4976 8.41256 77.4976 8.42191C77.4976 8.43126 77.4976 8.44528 77.4976 8.45462C77.5139 9.18834 78.0373 9.77718 78.6834 9.77718C79.3295 9.77718 79.8734 9.16965 79.8734 8.41724C79.8734 8.38452 79.8652 8.35648 79.8652 8.32377V2.55684H86.8577C89.757 2.55684 91.8997 3.20176 93.2859 4.49161C94.6722 5.78146 95.3673 7.67884 95.3673 10.1838C95.3673 11.1465 95.2079 12.0858 94.8848 12.9971C94.5618 13.9084 94.0588 14.7216 93.38 15.4413C92.6971 16.161 91.822 16.7405 90.7588 17.1751C89.6915 17.6144 88.4075 17.8341 86.9068 17.8341H87.009V19.8062H88.0559C89.4217 19.8062 90.6402 19.9838 91.7116 20.3296C92.783 20.6801 93.6908 21.1849 94.4268 21.8391C95.1629 22.4981 95.7272 23.2926 96.1157 24.2319C96.5082 25.1712 96.7004 26.2274 96.7004 27.4004C96.7004 29.9614 95.9685 31.943 94.5045 33.3543C93.0406 34.7657 90.8815 35.4713 88.0313 35.4713L77.4976 35.462V37.6304H88.0559C89.7897 37.6304 91.3354 37.3968 92.7012 36.9341C94.067 36.4714 95.216 35.7985 96.1525 34.9246C97.0889 34.0506 97.8004 32.9804 98.2911 31.7186C98.7818 30.4568 99.0272 29.0361 99.0272 27.4612C99.0272 24.989 98.3402 22.9981 96.9703 21.4793C95.5963 19.9651 93.6294 18.9931 91.0696 18.5725V18.5631Z" fill="#E2D5C4"/>
<path d="M44.4819 20.3525C43.7131 19.6515 42.8462 19.0673 41.8689 18.6047C40.8957 18.142 39.8938 17.7167 38.8674 17.3288C37.8411 16.9456 36.8392 16.5531 35.866 16.1605C34.8928 15.7679 34.0218 15.2819 33.253 14.7024C32.4842 14.1229 31.8667 13.4219 31.4006 12.5994C30.9344 11.7769 30.6972 10.7347 30.6972 9.47291C30.6972 8.5102 30.8526 7.58954 31.1675 6.71095C31.4824 5.83236 31.9404 5.06125 32.5496 4.39763C33.1548 3.73402 33.9073 3.20593 34.8028 2.81804C35.6983 2.43482 36.737 2.23854 37.9188 2.23854C39.1005 2.23854 40.0942 2.40678 40.8957 2.73859C41.7013 3.0704 42.3719 3.43492 42.9076 3.82749C43.4433 4.22005 43.8685 4.5799 44.1834 4.90703C44.4983 5.22949 44.7559 5.39306 44.9522 5.39306C45.2139 5.39306 45.4102 5.24351 45.5492 4.94442L46.1012 3.73402C44.9972 2.47221 43.7745 1.53286 42.4332 0.920653C41.092 0.308442 39.579 0 37.8901 0C36.3853 0 35.0481 0.266382 33.8745 0.803819C32.7009 1.34126 31.7154 2.04693 30.9181 2.93487C30.1207 3.81814 29.5155 4.8416 29.1025 5.99593C28.7017 7.15492 28.4932 8.35597 28.4932 9.59909C28.4932 11.1927 28.7262 12.5199 29.1965 13.5808C29.6627 14.6416 30.2801 15.5249 31.0489 16.2353C31.8177 16.9456 32.6846 17.5298 33.6578 17.9831C34.631 18.4411 35.6329 18.8523 36.6593 19.2215C37.6857 19.5907 38.6875 19.9646 39.6608 20.3525C40.634 20.7404 41.505 21.2171 42.2697 21.7872C43.0384 22.3574 43.6559 23.0677 44.1221 23.9183C44.5882 24.7688 44.8254 25.8484 44.8254 27.1663C44.8254 28.3767 44.6414 29.5123 44.2734 30.5685C43.9053 31.6293 43.3737 32.5453 42.6745 33.3164C41.9752 34.0875 41.1206 34.6951 40.1106 35.1437C39.9429 35.2185 39.7671 35.2745 39.5953 35.3353V37.6767C40.0983 37.5411 40.5767 37.3729 41.0306 37.1673C42.3187 36.5784 43.4065 35.7793 44.2979 34.7605C45.1853 33.7417 45.8641 32.55 46.3343 31.1713C46.8005 29.7974 47.0336 28.3299 47.0336 26.769C47.0336 25.2081 46.8005 23.9697 46.3343 22.9462C45.8641 21.9227 45.2507 21.0582 44.4819 20.3572V20.3525Z" fill="#E2D5C4"/>
<path d="M222.01 0.154297C221.245 0.154297 220.628 0.859975 220.628 1.73389C220.628 2.60781 221.245 3.31349 222.01 3.31349C222.775 3.31349 223.392 2.60781 223.392 1.73389C223.392 0.859975 222.775 0.154297 222.01 0.154297Z" fill="#F7AB60"/>
<path d="M227.003 0.425572C226.958 0.425572 226.917 0.420898 226.88 0.420898C226.86 0.420898 226.839 0.425572 226.823 0.425572H226.815C226.291 0.467632 225.874 0.958335 225.874 1.56587C225.874 2.17341 226.291 2.66879 226.815 2.70617H226.855C226.864 2.70617 226.872 2.70617 226.88 2.70617C226.896 2.70617 226.917 2.70617 226.937 2.70617H229.268V37.6162H231.636V2.71085H243.155V0.425572H227.003Z" fill="#F7AB60"/>
<path d="M216.825 0.425572H216.817C216.796 0.425572 216.776 0.420898 216.76 0.420898C216.723 0.420898 216.682 0.420898 216.633 0.425572H200.076V2.71085H211.591V37.6209H213.958V2.71085H216.698C216.698 2.71085 216.739 2.71085 216.756 2.71085C216.764 2.71085 216.772 2.71085 216.78 2.71085H216.821C217.344 2.66879 217.761 2.17341 217.761 1.56587C217.761 0.958335 217.344 0.462959 216.821 0.425572H216.825Z" fill="#F7AB60"/>
<path d="M23.5902 51.2979H18.3462V43.2939H23.5902V44.1819H19.3422V46.7619H23.5062V47.6499H19.3422V50.4099H23.5902V51.2979ZM35.8942 51.2979H31.1782V43.2939H32.1742V50.4099H35.8942V51.2979ZM48.5394 51.2979H43.2954V43.2939H48.5394V44.1819H44.2914V46.7619H48.4554V47.6499H44.2914V50.4099H48.5394V51.2979ZM59.7514 51.2979H58.5154L55.2994 43.2939H56.4394L59.1394 50.2059L61.8394 43.2939H62.9794L59.7514 51.2979ZM76.2333 51.2979H75.0933L74.3853 49.5219H70.4013L69.6933 51.2979H68.5533L71.7693 43.2939H73.0053L76.2333 51.2979ZM74.0853 48.6339L72.3933 44.3259L70.6893 48.6339H74.0853ZM95.3495 51.2979H94.3535V44.1819H91.8215V43.2939H97.8935V44.1819H95.3495V51.2979ZM108.481 51.4419C106.309 51.4419 105.217 50.1579 105.217 48.1899V43.2939H106.213V48.1659C106.213 49.6299 107.005 50.5539 108.481 50.5539C109.957 50.5539 110.749 49.6299 110.749 48.1659V43.2939H111.745V48.1779C111.745 50.1699 110.653 51.4419 108.481 51.4419ZM122.212 51.4419C120.82 51.4419 119.8 50.9139 119.14 50.1699L119.728 49.4139C120.256 50.0019 121.12 50.5539 122.248 50.5539C123.676 50.5539 124.132 49.7859 124.132 49.1739C124.132 47.1099 119.392 48.2499 119.392 45.3939C119.392 44.0739 120.568 43.1739 122.14 43.1739C123.364 43.1739 124.312 43.5819 124.984 44.2899L124.384 45.0219C123.784 44.3619 122.944 44.0619 122.068 44.0619C121.108 44.0619 120.424 44.5779 120.424 45.3339C120.424 47.1339 125.164 46.1019 125.164 49.0899C125.164 50.2539 124.372 51.4419 122.212 51.4419ZM146.989 51.2979H141.745V43.2939H146.989V44.1819H142.741V46.7619H146.905V47.6499H142.741V50.4099H146.989V51.2979ZM161.309 51.2979H160.109L157.553 47.8899L154.997 51.2979H153.785L156.905 47.1939L153.965 43.2939H155.177L157.553 46.4979L159.917 43.2939H161.129L158.201 47.1819L161.309 51.2979ZM169.401 51.2979H168.405V43.2939H171.621C173.229 43.2939 174.129 44.3979 174.129 45.7059C174.129 47.0139 173.205 48.1179 171.621 48.1179H169.401V51.2979ZM171.501 47.2299C172.449 47.2299 173.097 46.6059 173.097 45.7059C173.097 44.8059 172.449 44.1819 171.501 44.1819H169.401V47.2299H171.501ZM186.692 51.2979H181.448V43.2939H186.692V44.1819H182.444V46.7619H186.608V47.6499H182.444V50.4099H186.692V51.2979ZM200.088 51.2979H198.912L196.872 48.1179H195.276V51.2979H194.28V43.2939H197.496C198.96 43.2939 200.004 44.2299 200.004 45.7059C200.004 47.1459 199.02 47.9379 197.928 48.0339L200.088 51.2979ZM197.376 47.2419C198.324 47.2419 198.972 46.6059 198.972 45.7059C198.972 44.8059 198.324 44.1819 197.376 44.1819H195.276V47.2419H197.376ZM208.577 51.2979H207.581V43.2939H208.577V51.2979ZM221.696 51.2979H216.452V43.2939H221.696V44.1819H217.448V46.7619H221.612V47.6499H217.448V50.4099H221.696V51.2979ZM235.908 51.2979H234.948L230.28 44.9139V51.2979H229.284V43.2939H230.304L234.912 49.5459V43.2939H235.908V51.2979ZM247.572 51.4419C245.268 51.4419 243.456 49.7619 243.456 47.3019C243.456 44.8419 245.268 43.1619 247.572 43.1619C248.988 43.1619 249.972 43.8459 250.608 44.7459L249.768 45.2139C249.312 44.5419 248.484 44.0499 247.572 44.0499C245.82 44.0499 244.488 45.3939 244.488 47.3019C244.488 49.1979 245.82 50.5539 247.572 50.5539C248.484 50.5539 249.312 50.0739 249.768 49.3899L250.62 49.8579C249.948 50.7699 248.988 51.4419 247.572 51.4419ZM258.885 51.2979H257.889V43.2939H258.885V51.2979ZM273.612 51.2979H272.472L271.764 49.5219H267.78L267.072 51.2979H265.932L269.148 43.2939H270.384L273.612 51.2979ZM271.464 48.6339L269.772 44.3259L268.068 48.6339H271.464ZM283.087 51.4419C281.695 51.4419 280.675 50.9139 280.015 50.1699L280.603 49.4139C281.131 50.0019 281.995 50.5539 283.123 50.5539C284.551 50.5539 285.007 49.7859 285.007 49.1739C285.007 47.1099 280.267 48.2499 280.267 45.3939C280.267 44.0739 281.443 43.1739 283.015 43.1739C284.239 43.1739 285.187 43.5819 285.859 44.2899L285.259 45.0219C284.659 44.3619 283.819 44.0619 282.943 44.0619C281.983 44.0619 281.299 44.5779 281.299 45.3339C281.299 47.1339 286.039 46.1019 286.039 49.0899C286.039 50.2539 285.247 51.4419 283.087 51.4419Z" fill="white"/>
</svg>