<svg xmlns="http://www.w3.org/2000/svg" width="172" height="51" viewBox="0 0 172 51" fill="none">
<path d="M77.3899 44.8724C77.6269 44.2637 77.8269 43.7634 78.015 43.26C80.0354 37.8749 82.0617 32.4913 84.0584 27.0973C84.2465 26.5895 84.4865 26.4396 85.0078 26.447C87.126 26.4767 89.2456 26.4589 91.4141 26.4589V27.1567C91.3075 27.1775 91.2142 27.2027 91.1194 27.2116C90.6779 27.2532 90.2351 27.2859 89.7937 27.3289C88.5835 27.4477 88.0917 27.9926 88.148 29.2279C88.2887 32.3146 88.4369 35.3999 88.6057 38.4852C88.7642 41.3729 88.9494 44.2592 89.1271 47.1456C89.1508 47.5405 89.1953 47.9339 89.2397 48.3259C89.3137 48.9688 89.6811 49.3697 90.3032 49.4944C90.9772 49.6295 91.66 49.7171 92.3976 49.8344C92.4065 50.0452 92.4169 50.2516 92.4273 50.501H82.6512V49.821C83.1208 49.7527 83.5785 49.6889 84.0377 49.6206C85.433 49.4127 85.7751 49 85.707 47.6118C85.5218 43.8109 85.3367 40.0085 85.153 36.2076C85.0523 34.1112 84.9545 32.0132 84.7412 29.8871C84.6583 30.0712 84.5664 30.2524 84.4953 30.4424C82.0454 36.9321 79.597 43.4234 77.1485 49.9146C77.0967 50.0527 77.0685 50.21 76.9856 50.3258C76.8582 50.504 76.6938 50.6525 76.5442 50.8143C76.3857 50.6614 76.1576 50.5367 76.0791 50.3496C75.3399 48.5991 74.623 46.8367 73.9046 45.0773C71.8902 40.1406 69.8772 35.2024 67.8628 30.2657C67.808 30.1336 67.7398 30.0059 67.5517 29.8827C67.4939 30.8448 67.4214 31.8069 67.3784 32.769C67.1651 37.4859 66.9548 42.2014 66.7548 46.9184C66.6719 48.8842 67.3947 49.6622 69.3706 49.7928C69.7844 49.8205 69.9824 50.0556 69.9646 50.4981H61.4595C61.3158 50.0705 61.3202 49.8374 61.8905 49.775C64.0457 49.5419 64.8929 48.5798 65.0129 46.4002C65.3254 40.6751 65.6513 34.95 65.9757 29.2249C66.0453 27.9956 65.5846 27.4477 64.3508 27.3289C63.8146 27.277 63.2769 27.2265 62.6992 27.1715V26.4589C64.3834 26.4589 66.032 26.45 67.6806 26.4618C68.4893 26.4678 69.4802 26.2377 70.055 26.6192C70.5971 26.98 70.7082 28 70.9985 28.735C73.0307 33.8781 75.06 39.0211 77.0907 44.1642C77.1692 44.3632 77.2566 44.5592 77.387 44.871L77.3899 44.8724Z" fill="white"/>
<path d="M0.149235 27.1765V26.4653C5.27573 26.6064 10.3963 25.9353 15.4443 27.0518C21.5188 28.3955 24.8337 32.9714 24.4501 39.2028C24.0353 45.9479 19.4436 50.1556 12.6685 50.4852C8.60551 50.6827 4.52623 50.5342 0.454366 50.5387C0.359568 50.5387 0.266252 50.5104 0.143311 50.4911V49.8869C0.202559 49.8587 0.263289 49.8111 0.329944 49.7993C0.840964 49.7132 1.35643 49.6597 1.86152 49.5498C2.91319 49.3212 3.19166 48.9901 3.19462 47.9211C3.20943 42.8255 3.21387 37.7299 3.2198 32.6344C3.2198 31.4466 3.23017 30.2603 3.20351 29.0725C3.17981 28.0109 2.88653 27.6828 1.84671 27.4645C1.55787 27.4037 1.26163 27.3784 0.96983 27.3294C0.704692 27.2849 0.442516 27.23 0.149235 27.1735V27.1765ZM6.64437 27.8298C6.61623 27.9783 6.59105 28.0495 6.59105 28.1208C6.59697 34.6224 6.59994 41.124 6.61919 47.6256C6.62216 48.5684 7.02801 49.0985 7.9671 49.1786C9.41129 49.3034 10.8733 49.3954 12.3174 49.3152C15.9894 49.1148 18.8022 46.9248 19.9753 43.4328C20.9085 40.6519 20.9885 37.8012 20.4123 34.9461C19.7057 31.4481 17.5817 29.2135 14.1556 28.2544C11.7013 27.5685 9.20096 27.5224 6.64734 27.8268L6.64437 27.8298Z" fill="white"/>
<path d="M132.597 39.1609C132.597 39.4118 132.595 39.6776 132.597 39.9448C132.614 42.5654 132.631 45.1859 132.654 47.808C132.666 49.0403 132.897 49.3105 134.107 49.5273C134.47 49.5926 134.841 49.6208 135.206 49.6713C135.571 49.7203 135.934 49.7767 136.337 49.8346V50.5057H126.165C126.15 50.2874 126.137 50.1004 126.124 49.9118C126.215 49.8643 126.275 49.8123 126.341 49.8005C126.9 49.7025 127.464 49.6371 128.017 49.5139C128.889 49.3179 129.182 48.9542 129.218 48.0797C129.245 47.413 129.264 46.7449 129.264 46.0782C129.253 40.5135 129.237 34.9487 129.222 29.3855C129.218 27.9557 128.92 27.6038 127.515 27.387C127.223 27.3425 126.929 27.2846 126.636 27.2668C126.118 27.2371 126.013 26.9862 126.223 26.471C127.409 26.471 128.615 26.4576 129.821 26.4739C132.654 26.5125 135.488 26.5407 138.32 26.6328C138.997 26.6551 139.68 26.8689 140.334 27.0708C142.506 27.7434 144.009 29.0796 144.332 31.4374C144.652 33.7714 143.815 35.654 141.953 37.0808C140.847 37.9286 139.56 38.3206 138.185 38.5299C138.236 38.5834 138.259 38.6338 138.292 38.6398C140.992 39.1134 142.544 40.8179 143.398 43.3315C143.857 44.6841 144.374 46.0233 144.951 47.3299C145.662 48.9393 146.902 49.8316 148.718 49.8302C148.911 49.8302 149.103 50.0053 149.296 50.0989C149.13 50.2459 148.988 50.4597 148.794 50.528C145.784 51.5792 142.987 50.9452 141.423 47.9134C140.884 46.8681 140.528 45.7279 140.106 44.6232C139.921 44.1392 139.801 43.6314 139.621 43.1474C138.659 40.5759 136.781 39.2604 134.067 39.1045C133.673 39.0822 133.278 39.0778 132.884 39.0733C132.816 39.0733 132.748 39.1119 132.597 39.1594V39.1609ZM132.641 38.1884C133.419 38.1884 134.107 38.2092 134.795 38.181C135.335 38.1587 135.879 38.1097 136.411 38.0147C138.91 37.5633 140.386 36.2568 140.783 34.0267C140.927 33.2146 140.921 32.3505 140.835 31.525C140.674 29.9823 139.832 28.8599 138.404 28.2467C136.56 27.4568 134.632 27.4776 132.642 27.6914V38.1869L132.641 38.1884Z" fill="white"/>
<path d="M108.952 50.9658C101.721 50.9658 96.5471 45.7396 96.5486 38.4332C96.5486 31.2219 101.795 26.0595 109.117 26.0625C116.136 26.067 121.424 31.4981 121.42 38.6975C121.415 45.8806 116.249 50.9643 108.952 50.9643V50.9658ZM100.306 39.0628C100.358 39.621 100.403 40.736 100.579 41.8318C100.715 42.6796 100.954 43.5214 101.25 44.3291C102.525 47.7915 105.249 49.6474 108.977 49.6474C112.706 49.6474 115.484 47.8019 116.699 44.3231C118.047 40.4629 118.043 36.5328 116.652 32.6918C115.459 29.4002 112.995 27.5754 109.488 27.4017C106.003 27.2295 103.294 28.6162 101.671 31.8158C100.606 33.9152 100.346 36.1943 100.305 39.0628H100.306Z" fill="white"/>
<path d="M152.563 50.4803C152.372 50.0067 152.51 49.7855 153.014 49.735C153.528 49.6845 154.042 49.5984 154.542 49.4722C155.193 49.3089 155.536 48.8739 155.536 48.1805C155.535 41.7754 155.542 35.3703 155.529 28.9652C155.527 28.0031 155.243 27.6987 154.311 27.4908C153.879 27.3943 153.44 27.3142 152.999 27.2741C152.479 27.228 152.386 26.9742 152.569 26.4976H170.708V31.7862C170.185 32 169.971 31.8248 169.87 31.2739C169.477 29.1315 168.349 28.0506 166.154 27.9556C163.797 27.8546 161.434 27.9333 158.996 27.9333V37.1668C159.116 37.1906 159.278 37.2499 159.438 37.2485C161.14 37.2336 162.843 37.2425 164.543 37.1787C166.161 37.1178 166.787 36.5477 167.107 34.956C167.195 34.5225 167.281 34.1676 167.9 34.3918V41.474C167.698 41.4888 167.51 41.5022 167.29 41.517C167.241 41.3567 167.19 41.2245 167.161 41.0865C166.734 39.0955 166.312 38.6693 164.303 38.5832C162.536 38.509 160.765 38.5669 158.919 38.5669C158.919 39.1697 158.916 39.6834 158.919 40.1971C158.933 42.6202 158.941 45.0447 158.965 47.4678C158.978 48.8946 159.245 49.202 160.633 49.2094C162.606 49.2213 164.583 49.2287 166.552 49.1233C169.528 48.9659 170.562 48.0023 171.113 45.0626C171.627 44.8621 171.865 44.9883 171.856 45.5986C171.834 47.2035 171.849 48.8085 171.849 50.4759H152.56L152.563 50.4803Z" fill="white"/>
<path d="M49.5895 49.8484C50.2828 49.7638 50.8752 49.7266 51.4514 49.6108C52.3209 49.4371 52.5875 48.9902 52.2794 48.1647C51.5433 46.2004 50.776 44.248 49.9924 42.303C49.9243 42.1338 49.6429 41.9482 49.4577 41.9467C46.9159 41.9229 44.3742 41.9214 41.8324 41.9482C41.6354 41.9497 41.3347 42.1649 41.2607 42.352C40.6593 43.8649 40.0816 45.3883 39.538 46.9235C39.3928 47.3333 39.3647 47.792 39.3291 48.233C39.2655 49.0036 39.692 49.4342 40.3956 49.6123C40.7289 49.6969 41.077 49.7593 41.4191 49.7623C41.9213 49.7682 42.0057 50.0102 41.865 50.4839H34.2338C34.2175 50.3057 34.1982 50.1023 34.179 49.8959C34.2856 49.8514 34.3493 49.8009 34.4145 49.7994C36.0808 49.7935 37.0347 48.8447 37.6065 47.3867C39.0744 43.6408 40.5437 39.8978 42.0057 36.1488C43.2514 32.9522 44.4867 29.7526 45.731 26.5545C45.8584 26.2264 45.9058 25.7275 46.4183 25.8894C46.6789 25.971 46.9545 26.2591 47.0655 26.5219C50.0413 33.5966 53.0156 40.6728 55.9395 47.7698C56.4594 49.0318 57.1956 49.8128 58.6102 49.7742C59.1241 49.7593 59.1819 50.031 59.0501 50.4883H49.6384C49.6236 50.2953 49.6088 50.0919 49.591 49.8469L49.5895 49.8484ZM45.6673 31.1572C45.6065 31.1646 45.5473 31.1705 45.4866 31.178C44.4112 34.0019 43.3358 36.8259 42.2279 39.733H48.9971C47.8669 36.8259 46.7663 33.9915 45.6658 31.1572H45.6673Z" fill="white"/>
<path d="M99.046 8.61872C99.2652 8.69593 99.4429 8.76571 99.6266 8.82213C101.022 9.25419 101.817 10.2727 102.309 11.5822C102.631 12.4374 102.909 13.309 103.256 14.1523C103.774 15.4084 104.614 16.2665 106.089 16.2428C106.194 16.2413 106.302 16.3051 106.542 16.3824C106.313 16.5427 106.2 16.6645 106.062 16.7105C103.793 17.4632 102.057 16.8872 101.038 14.8991C100.57 13.9845 100.289 12.9719 99.9451 11.9965C99.1556 9.75008 97.3663 8.63506 95.14 9.03148C95.14 11.0997 95.1163 13.1694 95.1711 15.2376C95.1785 15.4885 95.5755 15.8345 95.8643 15.9488C96.2894 16.1166 96.7827 16.0973 97.2404 16.1938C97.3737 16.222 97.4833 16.3705 97.6033 16.4625C97.4818 16.5501 97.3603 16.7134 97.2389 16.7149C95.1904 16.7313 93.1433 16.7313 91.0948 16.7149C90.9748 16.7149 90.8548 16.5486 90.7349 16.4581C90.8548 16.3616 90.96 16.2175 91.0963 16.176C92.8204 15.6519 92.8263 15.6563 92.8204 13.8509C92.81 10.0173 92.8012 6.18526 92.7745 2.3517C92.7671 1.37326 92.5953 1.20994 91.6488 1.04069C91.431 1.00208 91.2029 0.993174 90.9955 0.923392C90.8889 0.887758 90.7423 0.740771 90.7482 0.654656C90.7556 0.558149 90.9082 0.409677 91.0119 0.396314C91.3037 0.359196 91.6014 0.375528 91.8976 0.379982C94.2142 0.412646 96.5309 0.434917 98.8475 0.492821C99.283 0.503214 99.7229 0.63387 100.147 0.757103C101.957 1.2827 102.933 2.37842 103.051 3.98341C103.183 5.76211 102.3 7.29286 100.665 8.04859C100.164 8.28021 99.6222 8.41829 99.0415 8.62021L99.046 8.61872ZM95.1089 8.51776C96.3946 8.30248 97.6151 8.24903 98.726 7.87339C100.258 7.35671 100.723 6.01748 100.72 4.49713C100.715 3.00201 100.105 2.01615 98.8342 1.53807C97.6373 1.0882 96.3961 1.05108 95.1089 1.253V8.51628V8.51776Z" fill="white"/>
<path d="M76.0157 17.0207C71.3306 17.1602 67.632 13.6474 67.4943 8.92448C67.3491 3.96252 70.707 0.284858 75.518 0.134901C80.5201 -0.0209956 84.2231 3.47108 84.3579 8.47015C84.4898 13.3623 81.0667 16.8692 76.0157 17.0192V17.0207ZM81.9687 8.66019C81.6754 7.24228 81.5288 5.90454 81.1126 4.65886C80.3616 2.41544 78.5056 1.11333 76.2764 1.04949C73.6561 0.97377 71.778 2.03238 70.8433 4.32925C69.7087 7.11905 69.6968 9.99199 70.8063 12.7877C71.7024 15.046 73.5154 16.1135 75.9239 16.1076C78.3279 16.1016 80.1542 15.0505 81.0104 12.7669C81.5036 11.45 81.6666 10.0098 81.9702 8.66168L81.9687 8.66019Z" fill="white"/>
<path d="M137.119 16.7299C136.206 16.7299 135.292 16.7447 134.38 16.718C134.216 16.7136 134.056 16.5428 133.893 16.4478C134.042 16.3617 134.184 16.2266 134.344 16.1984C136.051 15.9044 136.049 15.9088 135.408 14.2875C135.026 13.3239 134.636 12.3633 134.281 11.3893C134.143 11.0122 133.961 10.8548 133.536 10.8637C131.982 10.8919 130.427 10.8637 128.873 10.889C128.657 10.8934 128.317 11.0389 128.248 11.2082C127.809 12.2802 127.386 13.364 127.044 14.4701C126.704 15.5673 126.989 15.9445 128.107 16.1642C128.311 16.2043 128.492 16.3617 128.683 16.4641C128.489 16.5532 128.297 16.7165 128.101 16.7195C126.744 16.7418 125.388 16.7403 124.031 16.7195C123.853 16.7165 123.678 16.5651 123.502 16.4834C123.662 16.3765 123.813 16.1954 123.983 16.1746C124.954 16.0528 125.436 15.3966 125.758 14.583C126.944 11.5764 128.117 8.5639 129.292 5.55287C129.938 3.8974 130.567 2.236 131.234 0.589436C131.327 0.357819 131.588 0.194499 131.772 0C131.933 0.19153 132.152 0.356334 132.246 0.576073C134.235 5.30789 136.221 10.0412 138.179 14.7849C138.523 15.6178 138.99 16.1776 139.945 16.2117C140.09 16.2177 140.229 16.3825 140.372 16.4745C140.225 16.5591 140.08 16.715 139.93 16.718C138.993 16.7403 138.055 16.7299 137.117 16.7299H137.119ZM133.482 9.36713C132.715 7.39839 131.977 5.50833 131.175 3.44753C130.381 5.53209 129.664 7.4162 128.922 9.36713H133.482Z" fill="white"/>
<path d="M30.9332 12.316C31.0709 12.4882 31.2605 12.6396 31.339 12.8356C32.3373 15.3285 34.1118 16.5103 37.5883 15.9624C38.6829 15.7902 39.5124 15.1859 39.8442 14.0724C40.1908 12.9099 39.9612 11.8141 39.0695 11.0109C38.4637 10.4645 37.6994 10.0547 36.9454 9.72215C36.0019 9.30494 34.9843 9.05996 34.023 8.68135C31.6871 7.76379 30.5851 5.82326 31.062 3.5353C31.4131 1.8531 32.955 0.534666 35.008 0.224359C36.9158 -0.0636782 38.7407 0.270385 40.4633 1.12559C40.6381 1.2117 40.807 1.47004 40.8336 1.66751C40.9403 2.47223 40.9891 3.28438 40.9017 4.25687C40.7255 4.11285 40.5151 3.99705 40.3818 3.82185C39.9952 3.31407 39.7034 2.72018 39.2606 2.27328C37.9615 0.963752 36.3618 0.732135 34.6792 1.30227C32.7491 1.95703 32.3462 4.4291 33.9741 5.71933C34.6125 6.22562 35.4346 6.51514 36.2018 6.83584C37.132 7.22484 38.1141 7.49506 39.0339 7.90336C41.2972 8.90703 42.2274 10.4497 42.0245 12.7302C41.8542 14.6381 40.3641 16.301 38.2281 16.7776C35.8982 17.2972 33.6275 17.0047 31.4486 16.001C30.9657 15.7783 30.7391 15.4769 30.7658 14.9246C30.8043 14.0917 30.7761 13.2573 30.7761 12.4229C30.8295 12.3887 30.8813 12.3531 30.9346 12.3189L30.9332 12.316Z" fill="white"/>
<path d="M47.7702 0.403828H62.4195V4.16018C62.3691 4.20324 62.3173 4.2463 62.2669 4.28935C62.1395 4.13791 61.9395 4.00577 61.8966 3.83354C61.4048 1.84401 60.796 1.3496 58.7653 1.34366C57.9536 1.34069 57.1419 1.34366 56.2102 1.34366V2.09196C56.2102 6.24622 56.2087 10.4005 56.2102 14.5547C56.2102 15.7722 56.4146 15.9845 57.6559 16.1122C57.8766 16.1345 58.1047 16.1389 58.3135 16.2013C58.4705 16.2488 58.6024 16.378 58.7446 16.47C58.5979 16.5562 58.4542 16.7091 58.3046 16.715C57.6647 16.7432 57.0219 16.7284 56.3805 16.7284C54.9008 16.7284 53.4196 16.7388 51.9398 16.715C51.7502 16.7121 51.5636 16.5413 51.3755 16.4478C51.5488 16.3572 51.7162 16.1998 51.8969 16.185C54.2431 15.9875 53.8891 15.6237 53.901 13.7812C53.9276 9.92389 53.9099 6.06657 53.9069 2.20925C53.9069 1.94349 53.8802 1.67772 53.8669 1.40008C52.679 1.40008 51.5429 1.31545 50.4275 1.42383C49.2692 1.53667 48.5034 2.24489 48.225 3.41485C48.1627 3.67616 48.0976 3.93747 47.9806 4.41556C47.7732 4.15276 47.5584 4.00429 47.5643 3.86621C47.6073 2.73485 47.6917 1.60497 47.7687 0.402344L47.7702 0.403828Z" fill="white"/>
<path d="M113.817 8.55464C113.817 6.57551 113.818 4.59637 113.817 2.61723C113.815 1.37154 113.689 1.22307 112.491 1.00927C112.369 0.986999 112.236 0.991454 112.129 0.939488C111.977 0.865252 111.844 0.752413 111.701 0.655906C111.867 0.562368 112.029 0.403502 112.201 0.388655C112.642 0.350052 113.088 0.375292 113.532 0.375292C114.914 0.375292 116.296 0.366384 117.678 0.38717C117.853 0.39014 118.026 0.547521 118.2 0.633635C118.044 0.74202 117.902 0.890492 117.728 0.946912C117.474 1.03006 117.194 1.036 116.93 1.09538C116.41 1.21268 116.111 1.52744 116.111 2.08273C116.111 6.4107 116.108 10.7402 116.114 15.0681C116.114 15.7526 116.586 15.9679 117.173 16.0867C117.524 16.1579 117.856 16.3302 118.195 16.4564C117.829 16.5484 117.463 16.7117 117.096 16.7177C115.492 16.7459 113.888 16.7385 112.284 16.7177C112.088 16.7147 111.895 16.5499 111.701 16.4608C111.87 16.3554 112.035 16.2411 112.212 16.1505C112.297 16.1074 112.405 16.1149 112.503 16.1C113.639 15.9397 113.814 15.7422 113.815 14.5648C113.82 12.5604 113.815 10.5575 113.815 8.55316L113.817 8.55464Z" fill="white"/>
<path d="M30.8965 36.6858H29.205C29.0391 34.1974 28.8747 31.7298 28.7073 29.228H31.4164C31.2416 31.7268 31.0713 34.1736 30.8965 36.6858Z" fill="white"/>
</svg>