<svg xmlns="http://www.w3.org/2000/svg" width="165" height="85" viewBox="0 0 165 85" fill="none">
<path d="M18.0129 68.3947C17.4552 68.3947 17.0534 68.3968 16.6516 68.3947C16.3524 68.3926 16.0563 68.3874 15.757 68.3201C15.4358 68.2475 15.0978 68.256 14.7662 68.2118C13.9553 68.1046 13.158 67.95 12.3701 67.7366C11.3227 67.4527 10.3036 67.0868 9.30023 66.6663C8.47783 66.3214 7.70774 65.8872 6.96591 65.4077C6.21047 64.9188 5.47805 64.3879 4.85236 63.7266C4.58764 63.4458 4.31246 63.1756 4.03728 62.9054C3.29231 62.1737 2.70114 61.321 2.14241 60.4462C1.58996 59.5809 1.19655 58.6357 0.862773 57.6684C0.578176 56.8452 0.380423 55.9967 0.244403 55.1388C0.18267 54.7466 0.0811782 54.3502 0.116753 53.9434C-0.0820464 52.7584 0.0320015 51.5651 0.0351405 50.376C0.0351405 49.8818 0.133494 49.3814 0.199411 48.8851C0.294626 48.1702 0.43797 47.4668 0.633631 46.7771C0.848124 46.0201 1.08564 45.2704 1.43511 44.5586C1.82747 43.7596 2.24914 42.9794 2.78066 42.2645C3.0098 41.9564 3.25883 41.6631 3.49006 41.3571C3.8343 40.9008 4.24654 40.5087 4.6431 40.1007C5.1108 39.6192 5.635 39.2039 6.16548 38.7991C7.03182 38.1367 7.97141 37.5911 8.96018 37.1358C10.1749 36.5765 11.4316 36.1265 12.7363 35.8258C13.3515 35.6838 13.9678 35.5251 14.5925 35.4473C15.0194 35.3947 15.4452 35.2854 15.8826 35.3137C15.9495 35.3179 16.0186 35.3211 16.0824 35.3085C17.044 35.1224 18.016 35.2538 18.9817 35.2191C19.4808 35.3779 20.0061 35.3011 20.5177 35.3842C21.0409 35.4693 21.5682 35.5493 22.0935 35.6313C22.5685 35.7059 23.0352 35.8447 23.5008 35.9688C25.0231 36.3746 26.4838 36.9466 27.8639 37.7109C28.7124 38.1809 29.4919 38.7528 30.2359 39.3795C30.6471 39.7254 31.0373 40.0902 31.4056 40.4771C31.9361 41.0333 32.431 41.621 32.8757 42.2508C33.2723 42.8123 33.6458 43.3884 33.9534 44.0014C34.5718 45.2336 35.0269 46.5258 35.2718 47.8873C35.3691 48.4288 35.4653 48.9713 35.5511 49.5149C35.5742 49.6631 35.5595 49.8166 35.5637 49.968C35.5689 50.1857 35.6087 50.4023 35.6233 50.6147C35.6798 51.4673 35.707 52.3232 35.6087 53.1758C35.5972 53.2757 35.5679 53.3746 35.5679 53.4734C35.5679 54.0948 35.4716 54.7056 35.3628 55.3144C35.2195 56.1218 35.0405 56.9198 34.7748 57.6968C34.2893 59.1173 33.6249 60.4389 32.7188 61.6417C32.1841 62.3513 31.6327 63.0463 30.984 63.6509C30.1773 64.4026 29.3256 65.1039 28.3672 65.659C27.3815 66.2299 26.3624 66.7178 25.2941 67.1194C24.1809 67.5379 23.0383 67.8365 21.88 68.0667C21.2805 68.1855 20.6621 68.237 20.0542 68.318C19.3176 68.4158 18.5873 68.3611 18.0118 68.3968L18.0129 68.3947ZM27.9329 51.8563H27.9319C27.9319 51.2844 27.9319 50.7135 27.9319 50.1415C27.9319 50.0069 27.9507 49.864 27.9099 49.7409C27.822 49.477 27.8419 49.21 27.8346 48.9429C27.8304 48.7915 27.843 48.638 27.821 48.4898C27.732 47.8621 27.6232 47.2376 27.5395 46.6088C27.414 45.6605 27.1733 44.7395 26.896 43.8269C26.5686 42.7481 26.1113 41.7241 25.562 40.7431C25.2094 40.1133 24.793 39.5246 24.3085 38.9915C23.5363 38.1399 22.6344 37.4607 21.5933 36.9613C20.5219 36.4471 19.3846 36.2274 18.2179 36.1244C17.3955 36.0518 16.5805 36.1822 15.7863 36.3525C14.7881 36.567 13.8527 36.9749 12.9948 37.549C12.4622 37.9054 12.0112 38.3502 11.554 38.7928C10.9461 39.3816 10.4721 40.0713 10.0515 40.7957C9.39963 41.9165 8.9246 43.1214 8.58246 44.3694C8.18904 45.8056 7.91596 47.267 7.8469 48.761C7.84481 48.8115 7.84899 48.8651 7.83225 48.9103C7.72658 49.1858 7.75483 49.4739 7.75169 49.7578C7.7475 50.111 7.77157 50.4654 7.74227 50.8165C7.68682 51.4663 7.68472 52.1118 7.74018 52.7626C7.79877 53.4461 7.68263 54.1389 7.84376 54.8192C7.85841 54.8833 7.85423 54.9537 7.84795 55.02C7.81028 55.4763 7.9191 55.9242 7.98188 56.3668C8.07081 56.9924 8.19637 57.6159 8.32611 58.2372C8.5992 59.542 9.04074 60.7827 9.58482 61.9907C9.87465 62.6342 10.2639 63.2219 10.6594 63.8054C11.1805 64.575 11.8302 65.2153 12.5647 65.781C13.0743 66.1732 13.6351 66.4623 14.2011 66.7493C15.079 67.1951 16.0259 67.4054 16.9906 67.4716C17.7345 67.5221 18.4868 67.5305 19.2391 67.4033C19.9695 67.2792 20.6757 67.09 21.3485 66.8008C22.8772 66.1427 24.0731 65.0671 25.0399 63.7213C25.7692 62.7057 26.3017 61.5859 26.7119 60.4115C27.1639 59.1152 27.4767 57.782 27.6431 56.4131C27.7279 55.716 27.8555 55.0242 27.8388 54.3177C27.8388 54.284 27.8367 54.2483 27.8482 54.2178C27.9643 53.8918 27.9288 53.5543 27.9319 53.22C27.9361 52.7658 27.9329 52.3126 27.9329 51.8584V51.8563Z" fill="white"/>
<path d="M150.521 68.3943C149.922 68.3943 149.486 68.3964 149.052 68.3943C148.77 68.3922 148.484 68.4164 148.208 68.3154C148.133 68.2881 148.043 68.2944 147.959 68.2976C147.522 68.3133 147.102 68.1945 146.674 68.1315C146.13 68.0505 145.593 67.9422 145.062 67.7992C143.813 67.4638 142.609 67.0128 141.491 66.3641C140.77 65.9456 140.098 65.4525 139.459 64.9079C138.223 63.8544 137.338 62.5538 136.664 61.0945C136.327 60.3627 136.113 59.5899 135.962 58.7961C135.828 58.0854 135.744 57.3747 135.767 56.6513C135.776 56.3821 135.782 56.113 135.767 55.8449C135.725 55.1005 135.85 54.374 135.998 53.6538C136.198 52.6813 136.525 51.7497 136.975 50.8644C137.256 50.3104 137.605 49.7994 137.972 49.3C138.452 48.6471 139.028 48.0814 139.63 47.5536C140.258 47.0048 140.954 46.538 141.701 46.1532C142.549 45.7158 143.414 45.3205 144.328 45.0397C145.109 44.8 145.9 44.6129 146.706 44.4772C147.05 44.4194 147.404 44.4289 147.741 44.3143C147.848 44.2775 147.974 44.2964 148.091 44.2932C148.341 44.288 148.589 44.2975 148.836 44.2165C148.958 44.1765 149.1 44.1944 149.234 44.1944C149.87 44.1923 150.506 44.1892 151.142 44.1944C151.491 44.1965 151.845 44.1597 152.186 44.2785C152.232 44.2943 152.285 44.288 152.336 44.2901C153.504 44.3448 154.646 44.5561 155.776 44.8547C156.945 45.1638 158.058 45.6127 159.116 46.1931C159.79 46.5622 160.423 46.9953 161.016 47.4916C161.312 47.7397 161.593 47.9984 161.869 48.2675C162.494 48.8815 162.976 49.6038 163.439 50.343C164.026 51.2787 164.368 52.3101 164.632 53.3689C164.78 53.9671 164.909 54.5748 164.896 55.2004C164.893 55.3003 164.896 55.4044 164.915 55.5011C165.028 56.0331 165.029 56.564 164.914 57.095C164.897 57.176 164.9 57.2622 164.896 57.3452C164.821 58.9959 164.393 60.5488 163.602 61.9966C163.127 62.8671 162.541 63.6557 161.841 64.3654C161.178 65.0362 160.456 65.627 159.657 66.1201C158.973 66.5417 158.252 66.8919 157.506 67.1926C156.434 67.6257 155.323 67.9065 154.189 68.1083C153.697 68.1956 153.199 68.2345 152.709 68.3144C151.924 68.4416 151.142 68.3617 150.523 68.3985L150.521 68.3943ZM157.257 56.2139C157.231 55.7051 157.294 55.07 157.176 54.4339C157.104 54.0439 157.124 53.637 157.079 53.2364C157.006 52.5866 156.891 51.9474 156.75 51.3123C156.509 50.2294 156.156 49.1854 155.643 48.1971C155.216 47.3759 154.61 46.6988 153.894 46.15C152.967 45.4403 151.866 45.1522 150.711 45.1028C150.246 45.0828 149.783 45.0976 149.316 45.1806C148.554 45.3173 147.827 45.5118 147.159 45.9229C146.683 46.2162 146.255 46.5632 145.903 46.989C145.113 47.9437 144.609 49.0571 144.231 50.2273C144.067 50.7351 143.947 51.2598 143.848 51.7834C143.714 52.4878 143.598 53.1975 143.515 53.9093C143.46 54.3898 143.467 54.8755 143.421 55.3602C143.314 56.481 143.493 57.6028 143.511 58.7247C143.511 58.7741 143.523 58.8266 143.54 58.8718C143.605 59.0327 143.599 59.2009 143.603 59.3681C143.606 59.4859 143.603 59.6047 143.624 59.7193C143.711 60.1787 143.807 60.6361 143.897 61.0934C144.148 62.3667 144.555 63.5821 145.224 64.7008C145.595 65.3221 146.031 65.8783 146.607 66.3325C147.449 66.996 148.409 67.365 149.449 67.4649C150.207 67.5374 150.981 67.5427 151.743 67.386C152.817 67.1652 153.759 66.7047 154.543 65.9267C155.299 65.1781 155.77 64.2539 156.148 63.2835C156.428 62.5685 156.666 61.8357 156.799 61.0714C156.956 60.1661 157.163 59.2703 157.162 58.3441C157.162 58.2599 157.155 58.1695 157.184 58.0949C157.273 57.8667 157.255 57.6323 157.256 57.3978C157.258 57.0445 157.256 56.6923 157.256 56.2129L157.257 56.2139Z" fill="white"/>
<path d="M108.014 53.6692C105.52 53.6692 103.028 53.6692 100.535 53.6692C99.8891 53.6692 99.9268 53.6356 99.9268 54.2632C99.9268 54.6333 99.9247 55.0024 99.9278 55.3725C99.9299 55.6069 99.909 55.8424 99.9969 56.0706C100.026 56.1452 100.019 56.2357 100.021 56.3198C100.055 57.4963 100.269 58.6402 100.588 59.7725C100.943 61.0289 101.489 62.1844 102.232 63.2516C102.425 63.5302 102.679 63.75 102.914 63.9876C103.184 64.2609 103.448 64.5385 103.772 64.7572C104.691 65.3754 105.7 65.715 106.79 65.8874C107.458 65.9936 108.123 65.9915 108.787 65.9642C109.502 65.9347 110.213 65.8002 110.886 65.5478C111.668 65.2545 112.423 64.896 113.111 64.4071C113.772 63.9392 114.339 63.3841 114.853 62.7585C115.334 62.175 115.754 61.5525 116.16 60.9186C116.367 60.5947 116.548 60.2541 116.745 59.9229C116.863 59.7231 116.988 59.6716 117.202 59.741C117.312 59.7767 117.417 59.8356 117.52 59.8892C117.676 59.9712 117.695 60.0144 117.623 60.1637C117.478 60.4665 117.345 60.7777 117.171 61.0626C116.796 61.6777 116.449 62.3095 116.022 62.891C115.686 63.3494 115.368 63.8193 114.974 64.2336C114.744 64.4744 114.558 64.7572 114.31 64.9853C113.633 65.6099 112.917 66.1766 112.13 66.6623C111.44 67.0871 110.702 67.3951 109.95 67.6685C109.294 67.9072 108.612 68.0733 107.922 68.1942C107.115 68.3351 106.306 68.4244 105.486 68.4003C105.018 68.3866 104.549 68.3918 104.081 68.3971C103.495 68.4034 102.923 68.293 102.346 68.2194C101.549 68.1174 100.778 67.9093 100.013 67.6832C99.6777 67.5844 99.3419 67.4729 99.0259 67.3257C98.2537 66.9683 97.4773 66.6171 96.7805 66.1145C96.4415 65.8696 96.1014 65.6288 95.8106 65.3239C95.6609 65.1662 95.5061 65.0116 95.3481 64.8613C94.5121 64.0664 93.878 63.1286 93.3789 62.093C92.9698 61.2434 92.6905 60.3487 92.5053 59.4266C92.364 58.7222 92.2562 58.0094 92.2897 57.2839C92.295 57.1682 92.2866 57.0463 92.2542 56.9359C92.1841 56.7014 92.1872 56.4764 92.2573 56.243C92.2897 56.1326 92.295 56.0107 92.2897 55.8939C92.2594 55.1496 92.4174 54.4325 92.5639 53.7102C92.7522 52.7839 93.0682 51.9018 93.4993 51.067C93.8602 50.3678 94.2924 49.7128 94.78 49.0893C95.2372 48.5037 95.7614 47.9854 96.3044 47.4923C96.9605 46.8961 97.696 46.3978 98.4787 45.9772C99.3042 45.5335 100.153 45.1424 101.054 44.8701C101.772 44.6535 102.499 44.4969 103.24 44.3717C104.368 44.1814 105.498 44.1877 106.633 44.1909C106.783 44.1909 106.932 44.1951 107.078 44.2435C107.171 44.274 107.275 44.2855 107.374 44.2845C108.097 44.2824 108.801 44.439 109.488 44.6272C110.276 44.8428 111.051 45.113 111.777 45.503C112.714 46.0056 113.566 46.628 114.243 47.4481C114.744 48.0537 115.15 48.7298 115.423 49.4826C115.662 50.147 115.855 50.8231 115.954 51.5181C116.044 52.1457 116.142 52.7776 116.089 53.419C116.073 53.604 116.029 53.6545 115.844 53.6639C115.694 53.6713 115.543 53.6682 115.392 53.6682C112.932 53.6682 110.474 53.6682 108.014 53.6682V53.6692ZM104.92 52.7619C106.341 52.7619 107.763 52.7619 109.183 52.7619C109.317 52.7619 109.451 52.7661 109.584 52.7597C109.805 52.7503 109.85 52.7072 109.86 52.4937C109.895 51.7714 109.743 51.0607 109.737 50.3394C109.734 49.9935 109.617 49.6508 109.571 49.3038C109.474 48.5668 109.257 47.8666 108.948 47.1958C108.772 46.8152 108.538 46.464 108.252 46.157C107.641 45.502 106.858 45.1855 105.988 45.1067C105.236 45.0383 104.49 45.1319 103.776 45.4042C103.112 45.6576 102.501 46.0119 102.048 46.566C101.594 47.1211 101.196 47.7152 100.93 48.3996C100.589 49.2775 100.378 50.1807 100.216 51.1049C100.149 51.4834 100.137 51.8661 100.06 52.2446C99.9519 52.7745 100.069 52.7629 100.507 52.7629C101.979 52.7608 103.45 52.7629 104.922 52.7629L104.92 52.7619Z" fill="white"/>
<path d="M46.2069 49.881C46.2069 54.5692 46.2069 59.2563 46.2069 63.9445C46.2069 64.4681 46.2906 64.9769 46.457 65.4721C46.6129 65.9369 46.8807 66.2954 47.3453 66.5014C47.6665 66.6434 47.9752 66.8064 48.3215 66.8863C48.5831 66.9472 48.649 67.0597 48.6103 67.3173C48.5956 67.4099 48.5433 67.4719 48.4481 67.4782C48.332 67.4866 48.2148 67.4898 48.0976 67.4898C44.5684 67.4898 41.0392 67.4898 37.5089 67.4898C37.4252 67.4898 37.3415 67.4898 37.2578 67.4887C37.1396 67.4855 37.0151 67.4855 36.9805 67.3352C36.9335 67.1291 36.9931 66.9725 37.149 66.9083C37.2725 66.8579 37.4032 66.8274 37.5288 66.7811C37.7328 66.7065 37.9337 66.6255 38.1367 66.5509C38.7519 66.3259 39.0428 65.837 39.182 65.2366C39.296 64.7488 39.3797 64.2546 39.3797 63.75C39.3797 56.0885 39.3797 48.4259 39.3766 40.7644C39.3766 40.1767 39.2856 39.6026 39.0993 39.0401C38.9581 38.6122 38.6829 38.3157 38.3094 38.1076C38.0049 37.9383 37.7025 37.7511 37.3426 37.707C37.2777 37.6986 37.2191 37.6555 37.1542 37.6386C37.0172 37.6039 36.9711 37.5135 36.968 37.38C36.9596 37.093 37.0098 37.0309 37.3122 37.0299C38.0645 37.0257 38.8179 37.0278 39.5702 37.0278C39.9385 37.0278 40.3057 37.0299 40.674 37.0267C40.9073 37.0246 41.1375 37.0309 41.3688 36.9615C41.5236 36.9153 41.7004 36.9405 41.8668 36.9289C42.7562 36.8711 43.6142 36.6903 44.4104 36.2676C44.8279 36.0458 45.1637 35.7167 45.5341 35.4328C45.6137 35.3718 45.6817 35.2909 45.7685 35.2478C46.0081 35.1311 46.1944 35.2509 46.2038 35.5169C46.208 35.6515 46.2048 35.7861 46.2048 35.9207C46.2048 40.5752 46.2048 45.2297 46.2048 49.8831H46.2069V49.881Z" fill="white"/>
<path d="M69.1678 45.0952C71.3096 45.0952 73.4514 45.0952 75.5932 45.0952C75.7438 45.0952 75.8945 45.0952 76.0441 45.1047C76.1645 45.112 76.2126 45.1961 76.2189 45.3097C76.2335 45.5568 76.1655 45.6577 75.9322 45.6945C75.5032 45.7628 75.0878 45.8827 74.6714 46.0026C74.4736 46.0593 74.3031 46.1561 74.1618 46.3096C73.9651 46.523 73.8814 46.7448 74.008 47.0403C74.212 47.5176 74.3815 48.0065 74.6672 48.4481C74.8942 48.7982 75.0742 49.1799 75.2793 49.5447C75.6329 50.1724 75.9897 50.7969 76.3444 51.4246C76.5505 51.7894 76.7535 52.1553 76.9576 52.5212C77.4472 53.3991 77.9317 54.2791 78.4266 55.1549C79.0606 56.2778 79.7073 57.3933 80.3413 58.5162C80.8435 59.4057 81.3343 60.3025 81.8334 61.1941C81.9401 61.3844 82.0562 61.5684 82.1713 61.7535C82.2079 61.8123 82.3053 61.8092 82.3387 61.7482C82.5585 61.3529 82.7782 60.9576 82.9916 60.558C83.5525 59.5077 84.107 58.4552 84.6678 57.406C85.0947 56.608 85.5248 55.8121 85.9569 55.0172C86.4853 54.0457 87.0168 53.0763 87.5473 52.1059C87.5713 52.0617 87.5933 52.0165 87.6163 51.9713C87.9815 51.2732 88.3299 50.5656 88.7181 49.8801C89.0655 49.2661 89.3731 48.6331 89.6953 48.0076C89.8429 47.7216 89.9308 47.4167 90.0385 47.117C90.0856 46.9856 90.095 46.8531 90.0825 46.7196C90.0584 46.4694 89.9433 46.2833 89.7089 46.1645C89.393 46.0047 89.0571 45.9048 88.7191 45.8144C88.5109 45.7586 88.2933 45.7376 88.0819 45.6956C87.8946 45.6588 87.7973 45.3234 87.9302 45.1709C87.9595 45.1373 88.015 45.1131 88.061 45.1089C88.1771 45.0984 88.2943 45.0984 88.4115 45.0984C90.3692 45.0984 92.3268 45.0984 94.2845 45.0984C94.4017 45.0984 94.5188 45.1015 94.635 45.111C94.7312 45.1194 94.7804 45.1846 94.793 45.2761C94.7992 45.3255 94.8013 45.377 94.8003 45.4264C94.7972 45.6125 94.77 45.6472 94.5827 45.7019C94.2311 45.8049 93.8785 45.9079 93.5259 46.0089C92.4723 46.3106 91.6635 46.9457 91.0147 47.8215C90.6747 48.282 90.3859 48.7688 90.1128 49.2692C89.5761 50.2554 89.0351 51.2385 88.4973 52.2237C88.2724 52.6358 88.0505 53.049 87.8298 53.4632C87.5305 54.0257 87.2386 54.5924 86.9341 55.1518C86.4528 56.0339 85.9611 56.9108 85.4766 57.7908C85.2422 58.2166 85.0131 58.6456 84.785 59.0745C84.4858 59.637 84.1938 60.2037 83.8894 60.762C83.4164 61.6294 82.9309 62.4905 82.457 63.3579C82.1755 63.8731 81.9087 64.3956 81.6293 64.9108C81.3175 65.4849 80.9953 66.0526 80.6824 66.6267C80.4177 67.1124 80.1498 67.5961 79.9029 68.0913C79.791 68.3163 79.6445 68.413 79.3934 68.4035C78.9759 68.3888 78.5563 68.3941 78.1388 68.4014C77.9651 68.4046 77.8637 68.331 77.781 68.1848C77.4409 67.5887 77.0904 66.9989 76.7472 66.4038C76.313 65.6489 75.883 64.8919 75.4509 64.1359C75.1181 63.5545 74.7823 62.9752 74.4495 62.3938C74.1503 61.8702 73.8542 61.3455 73.5539 60.823C73.2212 60.2416 72.8853 59.6622 72.5505 59.0819C72.2324 58.531 71.9143 57.98 71.5973 57.428C71.2886 56.8908 70.981 56.3525 70.6755 55.8142C70.3773 55.2895 70.0854 54.7628 69.7851 54.2392C69.4513 53.6588 69.1102 53.0826 68.7764 52.5023C68.0158 51.1817 67.2645 49.8559 66.4944 48.5417C66.032 47.751 65.4199 47.0855 64.6676 46.5672C64.2815 46.3012 63.8358 46.1424 63.3869 46.0068C63.0364 45.9006 62.6806 45.8102 62.3301 45.7008C62.1125 45.6325 62.0539 45.5147 62.0874 45.2761C62.0999 45.1846 62.147 45.1162 62.2443 45.1099C62.3939 45.1005 62.5446 45.0984 62.6953 45.0984C64.8538 45.0984 67.0124 45.0984 69.1709 45.0984L69.1678 45.0952Z" fill="white"/>
<path d="M120.908 56.2516C120.908 54.0836 120.908 51.9157 120.908 49.7477C120.908 49.5132 120.92 49.2809 120.843 49.0496C120.803 48.9266 120.81 48.7825 120.817 48.65C120.839 48.24 120.739 47.851 120.612 47.4693C120.409 46.8585 120.028 46.4285 119.391 46.2445C118.924 46.1099 118.454 46.0174 117.968 46.0047C117.868 46.0026 117.767 46.0026 117.668 45.9911C117.574 45.9806 117.52 45.9154 117.511 45.8239C117.501 45.7408 117.502 45.6567 117.502 45.5726C117.502 45.1594 117.489 45.1247 117.92 45.0743C118.235 45.0364 118.552 45.0333 118.863 44.987C119.471 44.8955 120.079 44.8051 120.679 44.6632C121.397 44.4928 122.092 44.2573 122.758 43.9514C123.289 43.7085 123.781 43.3847 124.237 43.0146C124.405 42.8779 124.545 42.7076 124.739 42.6003C124.782 42.5762 124.818 42.5373 124.849 42.4984C125.276 41.9632 125.742 41.4638 126.094 40.8655C126.513 40.1527 126.841 39.4062 127.096 38.6229C127.122 38.543 127.143 38.461 127.18 38.3864C127.24 38.2644 127.35 38.2339 127.476 38.2518C127.6 38.2686 127.636 38.358 127.638 38.4673C127.641 38.6019 127.641 38.7365 127.641 38.871C127.641 40.753 127.641 42.6361 127.641 44.5181C127.641 45.1205 127.617 45.0995 128.213 45.0984C129.584 45.0974 130.956 45.0984 132.329 45.0984C132.463 45.0984 132.597 45.0963 132.731 45.1037C132.892 45.1132 132.948 45.1626 132.956 45.3129C132.964 45.4801 132.961 45.6494 132.954 45.8165C132.949 45.9364 132.871 45.9953 132.757 45.9995C132.606 46.0058 132.455 46.0037 132.305 46.0068C131.972 46.0142 131.643 46.0237 131.31 46.0794C130.969 46.1362 130.615 46.1393 130.271 46.2066C129.709 46.317 129.18 46.4999 128.69 46.808C128.268 47.073 128.005 47.4609 127.869 47.912C127.726 48.3893 127.64 48.8866 127.64 49.3934C127.642 53.3088 127.641 57.2252 127.642 61.1406C127.642 61.375 127.648 61.6053 127.71 61.8387C127.757 62.0122 127.74 62.2056 127.737 62.3896C127.726 62.9669 127.862 63.5188 128.032 64.0624C128.157 64.4672 128.411 64.7858 128.829 64.8983C129.397 65.0507 129.96 65.0423 130.435 64.6259C130.968 64.1591 131.415 63.6187 131.739 62.9826C132.179 62.1152 132.578 61.23 132.881 60.3026C132.907 60.2227 132.937 60.1439 132.97 60.0671C133.021 59.9462 133.124 59.8978 133.254 59.9378C133.333 59.963 133.411 59.9967 133.485 60.0335C133.829 60.2059 133.9 60.2175 133.726 60.6307C133.373 61.4623 133.099 62.3276 132.736 63.1551C132.339 64.0582 132 64.9971 131.397 65.794C131.075 66.2188 130.746 66.6288 130.332 66.9821C129.893 67.3585 129.427 67.6666 128.909 67.9063C128.484 68.1029 128.034 68.2091 127.574 68.3027C126.793 68.4614 126.005 68.4246 125.227 68.3763C124.391 68.3258 123.584 68.0892 122.893 67.5688C122.599 67.347 122.341 67.083 122.12 66.7845C121.58 66.0548 121.302 65.2168 121.119 64.3421C120.954 63.5535 120.898 62.7545 120.904 61.947C120.92 60.0482 120.909 58.1494 120.909 56.2495L120.908 56.2516Z" fill="white"/>
<path d="M59.6634 54.2443C59.6634 57.3858 59.6613 60.5274 59.6655 63.669C59.6655 64.1873 59.7555 64.6983 59.8497 65.2082C59.903 65.4984 60.0537 65.7381 60.1772 65.9925C60.2368 66.1156 60.3456 66.1955 60.4565 66.2754C60.7568 66.4951 61.0885 66.6486 61.4401 66.7632C61.6305 66.8252 61.8209 66.8873 62.0072 66.9588C62.1338 67.0071 62.1694 67.1154 62.1641 67.2447C62.1578 67.3983 62.1034 67.475 61.9674 67.4845C61.8513 67.4929 61.733 67.4908 61.6169 67.4908C58.071 67.4908 54.526 67.4908 50.9801 67.4908C50.8964 67.4908 50.8127 67.4929 50.729 67.4897C50.5113 67.4813 50.4486 67.4403 50.4318 67.3015C50.4025 67.0586 50.4643 66.9356 50.6892 66.8925C51.091 66.8158 51.4415 66.6234 51.8015 66.4467C52.2357 66.2344 52.5046 65.8779 52.6228 65.4216C52.7525 64.9201 52.8415 64.4133 52.8404 63.8877C52.8321 59.1164 52.8352 54.3452 52.8363 49.574C52.8363 49.0683 52.7494 48.5762 52.6134 48.0915C52.469 47.5764 52.1425 47.221 51.6707 46.9813C51.34 46.8131 50.9885 46.71 50.6369 46.608C50.5553 46.5838 50.4695 46.5702 50.4454 46.4745C50.412 46.342 50.4046 46.2053 50.4705 46.0823C50.4894 46.0466 50.5522 46.0203 50.5971 46.0161C50.73 46.0045 50.864 46.0024 50.9979 46.0024C52.0348 46.0024 53.0717 46.0024 54.1086 46.0014C54.3084 46.0014 54.5062 46.0014 54.7039 45.9414C54.8441 45.8994 55.0021 45.9046 55.1507 45.9078C55.723 45.9194 56.2765 45.7985 56.8248 45.6586C57.6524 45.4483 58.3535 45.0026 58.975 44.4243C59.0974 44.3107 59.2031 44.1814 59.3977 44.1888C59.5724 44.1951 59.6498 44.2466 59.6582 44.4159C59.6655 44.5662 59.6624 44.7187 59.6624 44.869C59.6624 47.9938 59.6624 51.1185 59.6624 54.2432H59.6634V54.2443Z" fill="white"/>
<path d="M72.91 4.45459C72.8629 4.78893 73.0554 4.97713 73.3013 5.15376C73.6979 5.43764 74.0317 5.7867 74.3068 6.19464C74.5747 6.59207 74.7013 7.03996 74.8227 7.49416C74.9367 7.92313 74.9357 8.35841 74.9158 8.79368C74.8938 9.2952 74.7693 9.78304 74.6741 10.2751C74.6647 10.3224 74.6364 10.3697 74.6071 10.4097C74.5506 10.4854 74.4701 10.5106 74.3874 10.4654C74.2849 10.4097 74.1834 10.3487 74.0923 10.2772C73.5786 9.87556 73.0544 9.47919 72.7081 8.91144C72.367 8.3521 72.0761 7.78119 72.1012 7.08096C72.1211 6.51216 72.2058 5.97805 72.5061 5.49652C72.7175 5.15587 72.729 4.84465 72.4695 4.53344C72.459 4.52082 72.4496 4.5061 72.4423 4.49139C72.0196 3.60611 72.0615 3.87842 71.4316 3.34957C70.9199 2.92061 70.3884 2.51792 69.8872 2.07529C69.3965 1.64316 68.9277 1.19212 68.4674 0.729505C68.3847 0.646445 68.3052 0.55918 68.2382 0.464554C68.1838 0.388854 68.2058 0.30264 68.2602 0.231145C68.3157 0.159651 68.392 0.117595 68.4768 0.17437C68.6023 0.258482 68.7059 0.369929 68.7865 0.49925C68.9225 0.715837 69.115 0.872494 69.3086 1.03441C69.5901 1.26992 69.8579 1.52541 70.1101 1.79351C70.3842 2.08475 70.7117 2.26033 71.0863 2.38019C71.4379 2.49269 71.8051 2.51477 72.1608 2.59993C72.231 2.61675 72.2895 2.58731 72.3471 2.54841C72.457 2.47271 72.5679 2.39806 72.6809 2.32552C73.1088 2.05005 73.5817 1.90917 74.0808 1.8198C74.6542 1.71676 75.2046 1.84083 75.7528 1.94491C76.2875 2.04585 76.8347 2.09631 77.3778 2.27821C77.3066 2.44958 77.1758 2.55893 77.0461 2.65355C76.6129 2.96792 76.1672 3.27598 75.6629 3.45892C75.1784 3.6345 74.6783 3.79536 74.1499 3.73438C73.564 3.66709 73.0084 3.49361 72.5082 3.16768C72.4664 3.14035 72.4298 3.1046 72.3879 3.07726C72.134 2.90904 71.8327 2.83614 71.4839 2.85857C71.7036 3.15296 72.0102 3.32855 72.2895 3.52516C72.8357 3.90997 73.4028 4.26323 73.9668 4.62176C74.2242 4.78472 74.4973 4.88986 74.8185 4.86358C75.1345 4.83835 75.4536 4.85096 75.7717 4.85832C75.9872 4.86253 76.1536 4.82047 76.2697 4.60388C76.3712 4.41463 76.5135 4.24221 76.6589 4.08239C77.0827 3.61978 77.5818 3.25915 78.175 3.04467C78.7432 2.8386 79.326 2.73766 79.936 2.7282C80.7301 2.71558 81.4919 2.87645 82.2536 3.05939C82.4021 3.09514 82.4252 3.19712 82.3237 3.31593C82.083 3.60086 81.7775 3.81008 81.4783 4.02141C81.111 4.28216 80.7343 4.5366 80.3357 4.74372C79.7424 5.05178 79.1251 5.30516 78.446 5.36299C78.2315 5.38086 78.0275 5.46287 77.8047 5.45867C77.3851 5.45131 76.9739 5.39243 76.5752 5.27467C76.2477 5.17794 75.9328 5.10224 75.599 5.23893C75.5143 5.27362 75.4107 5.26206 75.2956 5.27467C75.3814 5.43028 75.5206 5.46182 75.6356 5.51334C76.0772 5.71205 76.5198 5.90761 76.9686 6.0895C77.4636 6.29032 77.9626 6.48167 78.4649 6.66251C78.7631 6.76975 79.0707 6.84861 79.3752 6.93482C79.4369 6.95269 79.5091 6.96005 79.5708 6.94744C79.8962 6.87805 80.2185 6.79393 80.5439 6.7277C80.8212 6.67092 80.9823 6.50901 81.0472 6.23775C81.0702 6.13997 81.1079 6.04639 81.1434 5.95177C81.4364 5.16638 81.9303 4.56183 82.6878 4.18228C83.5405 3.75541 84.4289 3.65763 85.3611 3.8227C85.6384 3.87212 85.9251 3.87632 86.1982 3.95307C86.3258 3.98882 86.4524 4.03193 86.5769 4.07819C86.6324 4.09922 86.6449 4.16125 86.6177 4.2033C86.5455 4.31475 86.4566 4.41674 86.3823 4.52608C85.8968 5.23893 85.3119 5.8624 84.6078 6.3513C83.9695 6.79604 83.2601 7.08307 82.4586 7.07466C82.0579 7.07045 81.653 7.09148 81.27 6.95375C81.0953 6.89066 80.9509 6.91379 80.7929 6.99054C80.6768 7.04627 80.5481 7.07571 80.4016 7.12512C80.6234 7.31332 80.8871 7.31542 81.1225 7.36589C81.675 7.4847 82.2306 7.61087 82.7914 7.65502C83.3386 7.69813 83.8795 7.81168 84.4351 7.7896C84.7647 7.77593 85.1037 7.73493 85.4302 7.85163C85.4877 7.87266 85.5662 7.86635 85.6248 7.84427C85.9523 7.72126 86.2787 7.59299 86.602 7.45841C86.6993 7.41846 86.7548 7.33014 86.7653 7.2208C86.8249 6.59207 87.1555 6.09266 87.5123 5.6006C87.6463 5.41661 87.8472 5.32514 88.0114 5.1853C88.453 4.81101 88.9814 4.61019 89.5286 4.44302C89.945 4.3158 90.3771 4.2748 90.7957 4.16966C90.8773 4.14863 90.9683 4.14232 91.0311 4.21066C91.0959 4.28111 91.0771 4.36942 91.0321 4.44407C90.6879 5.01708 90.3928 5.62479 89.9 6.09371C89.6217 6.35866 89.3727 6.652 89.0598 6.88435C88.453 7.3354 87.7666 7.56145 87.0321 7.67185C86.9682 7.68131 86.8981 7.67185 86.8584 7.77383C87.3313 7.76647 87.7917 7.82325 88.2573 7.7118C88.5953 7.63189 88.951 7.63505 89.2952 7.57512C89.9827 7.45631 90.6743 7.36274 91.3565 7.20923C91.6003 7.15456 91.7844 7.05153 91.9497 6.87489C92.3316 6.46695 92.7795 6.15259 93.2859 5.91707C93.6249 5.76042 93.9743 5.66789 94.3468 5.66053C94.5132 5.65738 94.6785 5.65422 94.8428 5.60586C94.9683 5.56906 95.1065 5.57222 95.2393 5.56381C95.6882 5.53752 96.1423 5.61112 96.588 5.50072C96.6111 5.49441 96.6613 5.5207 96.6686 5.54173C96.6843 5.58588 96.7 5.65107 96.6791 5.68366C96.3913 6.11894 96.0576 6.51321 95.6495 6.84125C95.5585 6.91484 95.4601 6.97898 95.3691 7.05152C94.7141 7.57722 93.9566 7.79276 93.13 7.76857C92.7973 7.75911 92.4698 7.67815 92.1538 7.57091C91.911 7.4889 91.685 7.45947 91.4234 7.53411C90.961 7.66659 90.4828 7.74965 90.0109 7.84533C89.8812 7.87161 89.7452 7.86846 89.6123 7.87897C89.5296 7.88528 89.4271 7.88738 89.4375 7.99883C89.4417 8.04509 89.5254 8.09661 89.583 8.11974C89.6405 8.14287 89.718 8.15233 89.7745 8.13236C90.0203 8.04614 90.2725 8.0882 90.5215 8.07874C91.278 8.0493 91.9027 8.34053 92.4875 8.81366C93.0076 9.23316 93.3675 9.76622 93.7316 10.3045C93.8321 10.4528 93.7776 10.5527 93.6113 10.5958C93.1195 10.7219 92.6162 10.724 92.1182 10.6914C91.4716 10.6494 90.8815 10.4202 90.3729 10.0101C90.1877 9.86084 90.0852 9.64215 89.968 9.44029C89.8163 9.17849 89.6908 8.90303 89.6123 8.60969C89.5736 8.46565 89.4982 8.37102 89.3633 8.32055C88.8255 8.11869 88.2835 7.96939 87.7028 8.14497C87.5782 8.18282 87.438 8.17441 87.3052 8.17441C86.3509 8.17651 85.3977 8.17651 84.4435 8.17651C84.2593 8.17651 84.0783 8.17651 83.9005 8.10817C83.7927 8.06612 83.6713 8.06402 83.5196 8.11553C83.7174 8.2806 83.8827 8.391 84.1516 8.3153C84.3901 8.24801 84.6423 8.28165 84.8945 8.33948C85.1853 8.40572 85.4825 8.43831 85.7702 8.53189C86.1427 8.65279 86.4681 8.84835 86.7872 9.06494C87.3711 9.46026 87.7708 10.0112 88.0857 10.6284C88.2761 11.0016 88.4938 11.3622 88.6078 11.7702C88.6298 11.8501 88.657 11.93 88.6706 12.012C88.6905 12.135 88.6026 12.2033 88.4864 12.156C88.2699 12.0677 88.0564 11.972 87.8398 11.8848C87.2989 11.665 86.759 11.4411 86.2128 11.2319C85.2816 10.8744 84.5994 10.2457 84.1484 9.35618C84.1181 9.29625 84.0752 9.23947 84.0595 9.17639C83.9339 8.66751 83.5186 8.48457 83.0979 8.30478C82.4356 8.02196 81.744 7.83376 81.0409 7.69393C80.0752 7.50152 79.1251 7.25339 78.1918 6.93797C78.0997 6.90643 78.0129 6.83599 77.8967 6.918C77.994 7.1493 78.1866 7.27021 78.4073 7.35222C78.5475 7.40479 78.694 7.44369 78.8374 7.48785C79.3909 7.66133 79.8575 7.97675 80.2771 8.36892C80.7678 8.82838 81.0597 9.4119 81.2659 10.0375C81.4814 10.6935 81.5766 11.3717 81.5463 12.0646C81.5368 12.2854 81.45 12.3327 81.2617 12.2118C81.1644 12.1487 81.0702 12.0751 80.9896 11.992C80.6517 11.6419 80.2509 11.3664 79.8805 11.0552C79.4714 10.7104 79.0853 10.335 78.7526 9.91236C78.4126 9.48024 78.2472 8.96716 78.1562 8.43621C78.1144 8.19018 78.0139 7.95152 78.0359 7.69498C78.0484 7.54673 77.9647 7.43739 77.8601 7.34907C77.5787 7.11356 77.2982 6.87594 77.0074 6.6541C76.6474 6.37969 76.253 6.17256 75.8324 5.99382C75.3113 5.77303 74.8007 5.5186 74.3163 5.21474C73.8925 4.94874 73.452 4.71007 73.0167 4.4609C72.9895 4.44512 72.9519 4.44828 72.9184 4.44197C72.9016 4.42935 72.8849 4.41674 72.8671 4.40412C72.8797 4.42094 72.8933 4.43776 72.9058 4.45354L72.91 4.45459ZM90.9882 8.99134C90.8312 8.98503 90.7078 8.89041 90.5728 8.82733C90.4368 8.76424 90.3028 8.69485 90.1658 8.63387C90.0789 8.59497 89.991 8.6549 89.9942 8.74532C89.9952 8.79473 89.989 8.84941 90.0057 8.89462C90.2212 9.46867 90.6105 9.89869 91.1504 10.1668C91.821 10.499 92.5493 10.4097 93.2639 10.3823C93.3382 10.3792 93.3738 10.3098 93.3445 10.2341C93.3267 10.1889 93.2911 10.15 93.266 10.1069C93.0473 9.71996 92.6999 9.4487 92.3976 9.13959C91.8817 8.61284 91.2581 8.33738 90.5121 8.38048C90.4504 8.38364 90.375 8.37102 90.3667 8.47721C90.4828 8.62441 90.6701 8.66541 90.8249 8.75688C90.917 8.81155 90.9871 8.87148 90.9945 8.98503L90.9882 8.99239V8.99134ZM87.7802 7.17559C88.2249 7.12302 88.6183 6.918 88.9395 6.63938C89.5045 6.14943 90.0423 5.62163 90.4221 4.96136C90.4964 4.83204 90.5864 4.70797 90.5895 4.54921L90.6314 4.52608L90.6115 4.50716L90.5895 4.54921C90.4232 4.55447 90.2505 4.53134 90.0915 4.57024C89.4271 4.7311 88.7888 4.94454 88.2165 5.35248C87.777 5.66579 87.482 6.07058 87.2487 6.53634C87.1754 6.68354 87.1388 6.84966 87.0907 7.00947C87.0833 7.0347 87.1011 7.07676 87.12 7.09989C87.1545 7.143 87.2037 7.14825 87.2518 7.11881C87.4799 6.98108 87.7059 6.8423 87.9361 6.70877C87.9549 6.69826 88.0041 6.71403 88.0219 6.734C88.0386 6.75293 88.0439 6.79709 88.0344 6.82232C87.9811 6.96216 87.7655 6.97898 87.775 7.16823C87.7143 7.17454 87.6525 7.17979 87.5929 7.18821C87.5814 7.19031 87.5709 7.20608 87.5605 7.21554C87.5835 7.23131 87.6065 7.2597 87.6306 7.2618C87.6965 7.26811 87.7478 7.23447 87.7823 7.17664L87.7802 7.17559ZM79.6409 9.19321C79.5342 9.189 79.4515 9.1438 79.3867 9.05653C79.2172 8.82943 79.0508 8.59917 78.8719 8.37943C78.7777 8.26378 78.6637 8.16285 78.5486 8.06612C78.5109 8.03458 78.4513 8.06296 78.446 8.12289C78.4398 8.18913 78.4345 8.25957 78.4492 8.32371C78.6093 9.03866 78.9022 9.69052 79.4202 10.2162C79.8889 10.6925 80.4319 11.0836 80.9499 11.5042C81.021 11.562 81.0943 11.6514 81.2428 11.6198C81.1947 11.2802 81.1665 10.9343 81.0932 10.5979C80.9132 9.77778 80.546 9.06284 79.914 8.48878C79.597 8.2007 79.2538 7.98516 78.8415 7.87792C78.8363 7.86635 78.8332 7.85374 78.8248 7.84427C78.8196 7.83902 78.8081 7.84007 78.7986 7.83797C78.8122 7.85163 78.8259 7.8653 78.8405 7.87897C78.8583 7.941 78.8604 8.01355 78.896 8.06191C79.0288 8.24696 79.1774 8.41939 79.3092 8.60443C79.439 8.78737 79.6074 8.95034 79.6483 9.1869L79.6409 9.19321ZM85.6677 9.69578C85.3475 9.62008 85.1341 9.36248 84.8547 9.21844C84.7365 9.15746 84.6256 9.08387 84.5073 9.02394C84.4874 9.01342 84.4404 9.0313 84.4215 9.05232C84.4027 9.0723 84.3975 9.11225 84.4006 9.14169C84.4048 9.17323 84.4236 9.20372 84.4393 9.23421C84.7124 9.76832 85.156 10.1542 85.5871 10.5506C85.6352 10.5947 85.7033 10.6157 85.7608 10.6494C86.4597 11.051 87.2351 11.2708 87.9696 11.5872C88.0062 11.603 88.069 11.5862 88.1077 11.563C88.1558 11.5357 88.1527 11.4789 88.1307 11.4306C87.935 10.9848 87.6986 10.5642 87.4192 10.1626C86.9515 9.48865 86.3091 9.06179 85.5505 8.8042C85.2868 8.71483 85.0054 8.63913 84.7155 8.68854C84.6904 8.69275 84.6559 8.72114 84.6517 8.74321C84.6465 8.7695 84.6622 8.81366 84.6831 8.82838C84.9175 8.98924 85.1539 9.14485 85.3894 9.30256C85.5296 9.39718 85.6687 9.49391 85.6719 9.68947L85.6666 9.69472L85.6677 9.69578ZM79.3448 4.14758L79.3417 4.14443C79.1722 4.31791 78.9493 4.38519 78.7306 4.4651C78.1698 4.66802 77.6017 4.8436 76.9446 5.00867C77.2166 5.08122 77.4207 5.04547 77.6079 5.12537C77.8078 5.21054 77.9951 5.05598 78.1949 5.05598C78.3937 5.05598 78.5883 5.04021 78.7882 4.99395C79.1659 4.90563 79.5122 4.75318 79.8659 4.60178C80.5156 4.32421 81.0775 3.90891 81.6415 3.49572C81.7043 3.44946 81.7785 3.39584 81.7681 3.26126C81.4709 3.215 81.1633 3.1803 80.8609 3.11722C80.2645 2.99315 79.6776 3.0289 79.078 3.12142C78.0987 3.27282 77.3464 3.77539 76.7238 4.51662C76.7029 4.54185 76.6851 4.57234 76.6778 4.60388C76.6663 4.65435 76.6715 4.71113 76.7311 4.72269C76.795 4.73531 76.8651 4.74687 76.9268 4.73215C77.5588 4.58811 78.196 4.46405 78.807 4.24221C78.9807 4.17912 79.1544 4.1234 79.3427 4.14653L79.3448 4.14758ZM86.1113 4.28531C85.6865 4.10237 85.2324 4.11078 84.7951 4.05296C84.4309 4.00459 84.0668 4.06873 83.7048 4.14127C82.7642 4.32842 82.059 4.83099 81.5986 5.6742C81.5107 5.83506 81.4374 6.00539 81.3705 6.17677C81.3401 6.25352 81.3391 6.35025 81.4134 6.40807C81.4699 6.45223 81.5389 6.41754 81.5996 6.38915C82.0537 6.17887 82.5089 5.96859 82.963 5.75936C83.0833 5.70364 83.2036 5.64581 83.3271 5.5964C83.348 5.58799 83.3972 5.61007 83.4087 5.63109C83.4192 5.65212 83.4087 5.70574 83.3899 5.71731C83.0833 5.92023 82.7736 6.11579 82.4409 6.27244C82.2149 6.37969 81.9941 6.49954 81.7744 6.6194C81.7545 6.62992 81.7398 6.67828 81.7461 6.70457C81.7513 6.72664 81.7869 6.75713 81.811 6.75924C82.5905 6.82127 83.3386 6.72244 84.0365 6.33448C84.8704 5.87081 85.5306 5.2221 86.0716 4.44302C86.0977 4.40517 86.0977 4.34945 86.1145 4.28531H86.1113ZM73.6717 8.02722C73.543 7.5236 73.4394 7.08727 73.3181 6.6562C73.2187 6.30293 73.0994 5.95387 72.9822 5.60586C72.9686 5.56696 72.9111 5.51965 72.8734 5.5186C72.8347 5.51754 72.7803 5.56065 72.7572 5.5985C72.6254 5.81509 72.5522 6.05796 72.4936 6.30083C72.3638 6.84545 72.3502 7.39428 72.5208 7.93259C72.7081 8.52242 73.1151 8.97557 73.5252 9.4119C73.6801 9.57592 73.8789 9.71365 74.0526 9.86926C74.1143 9.92393 74.1865 9.96809 74.2597 10.007C74.3497 10.0554 74.4188 10.0259 74.4544 9.92918C74.4774 9.86715 74.5098 9.80512 74.5171 9.73993C74.5736 9.25945 74.6438 8.78212 74.6322 8.29322C74.6134 7.53306 74.3707 6.85071 73.9898 6.21041C73.8705 6.0096 73.6885 5.85294 73.5001 5.71205C73.4782 5.69628 73.4363 5.69628 73.407 5.70364C73.3516 5.71731 73.3317 5.76462 73.3306 5.81719C73.3306 5.86661 73.3233 5.92233 73.3411 5.96544C73.5504 6.48167 73.5744 7.03891 73.701 7.57302C73.7314 7.70128 73.7429 7.83691 73.6728 8.02722H73.6717ZM92.3306 7.32384C92.9605 7.5215 93.5339 7.52465 94.1125 7.3743C94.4086 7.29755 94.6712 7.15141 94.9307 7.00211C95.3534 6.76029 95.7196 6.44277 96.0345 6.06847C96.067 6.02957 96.0816 5.98226 96.0576 5.93074C96.0324 5.87712 95.9822 5.86345 95.9341 5.8645C95.4528 5.88133 94.9736 5.83927 94.487 5.92759C94.1261 5.99277 93.7619 6.03273 93.4208 6.17151C93.0348 6.32817 92.6874 6.54581 92.4227 6.95059C92.972 6.96216 93.4209 6.68144 94.0256 6.67828C93.4418 7.00001 92.8778 7.0736 92.3295 7.32384H92.3306ZM75.1847 2.67879C74.9744 2.73872 74.8174 2.81862 74.6584 2.82072C74.1583 2.82808 73.6717 2.9879 73.1684 2.93427C73.1025 2.92691 73.0345 2.93322 72.9697 2.94269C72.9466 2.94584 72.9121 2.97738 72.91 2.99841C72.9069 3.02469 72.9247 3.07096 72.9466 3.08042C73.3746 3.26441 73.8015 3.43789 74.2828 3.44315C75.0089 3.45156 75.6597 3.22866 76.2613 2.84491C76.4319 2.73661 76.638 2.65986 76.7657 2.43171C76.2498 2.32762 75.7654 2.20251 75.2747 2.13837C74.8373 2.08054 74.4 1.9754 73.9448 2.11839C73.5922 2.22879 73.2501 2.34444 72.9341 2.53474C72.8901 2.56103 72.8567 2.60098 72.8859 2.65566C72.8995 2.68089 72.933 2.71348 72.9571 2.71348C73.5221 2.71979 74.0892 2.79023 74.65 2.67248C74.8122 2.63883 74.9692 2.61465 75.1857 2.67984L75.1847 2.67879Z" fill="white"/>
<path d="M56.1324 35.6126C56.6398 35.5622 57.2362 35.681 57.8274 35.8912C58.5514 36.1488 59.1279 36.5904 59.5015 37.2507C59.8363 37.8447 59.9451 38.4934 59.8039 39.1884C59.6741 39.8266 59.3853 40.3534 58.8925 40.7602C58.4248 41.1472 57.8923 41.4195 57.2969 41.5614C57.0039 41.6318 56.711 41.6802 56.4075 41.6697C56.1072 41.6592 55.8059 41.675 55.5056 41.6655C54.4959 41.6361 53.6118 41.2786 52.9034 40.5605C52.2233 39.8697 52.013 39.0265 52.2045 38.0666C52.4284 36.9468 53.1556 36.295 54.1559 35.907C54.9532 35.5979 55.0013 35.6126 56.1324 35.6126Z" fill="white"/>
<path d="M82.455 83.9275C82.4509 84.0137 82.4331 84.102 82.3588 84.1504C82.0658 84.3396 81.7927 84.5531 81.461 84.6876C80.9044 84.9126 80.354 84.8853 79.7974 84.7318C79.2826 84.5888 78.793 83.9937 78.7365 83.3345C78.6737 82.5901 78.8913 81.9519 79.3339 81.3652C79.5683 81.0551 79.8372 80.7901 80.1469 80.562C80.2944 80.4537 80.4304 80.3212 80.5905 80.2371C80.8971 80.0762 80.8071 79.97 80.6658 79.7661C80.2578 79.1741 79.8414 78.5896 79.4281 78.0018C79.3988 77.9608 79.3642 77.9219 79.3465 77.8757C79.292 77.7411 79.0995 77.6454 79.1759 77.4814C79.268 77.2848 79.4741 77.3784 79.6279 77.3773C80.7318 77.3699 81.8346 77.3731 82.9384 77.3742C83.0556 77.3742 83.1728 77.3763 83.289 77.3878C83.3831 77.3973 83.4323 77.4625 83.448 77.5539C83.4511 77.5708 83.4532 77.5876 83.4532 77.6044C83.4532 78.209 83.4553 78.8135 83.4532 79.4181C83.4532 79.4443 83.4323 79.4853 83.4103 79.4948C83.3507 79.5221 83.3036 79.4717 83.2984 79.4286C83.2617 79.1584 83.1257 78.9228 83.0389 78.6716C82.9625 78.4518 82.861 78.2405 82.6988 78.0607C82.4603 77.7979 82.1851 77.6559 81.8189 77.6654C81.4045 77.6748 80.9839 77.7127 80.5759 77.5865C80.5141 77.5676 80.4388 77.5823 80.399 77.6454C80.3561 77.7116 80.3917 77.7779 80.4273 77.8326C80.5371 77.9997 80.6554 78.1616 80.7684 78.3267C81.506 79.4023 82.2405 80.4789 82.9813 81.5513C83.1697 81.8236 83.3727 82.0865 83.5892 82.3809C83.7315 82.2305 83.7954 82.0623 83.8529 81.8951C84.0329 81.3715 84.1846 80.8416 84.1616 80.2791C84.1553 80.1277 84.2118 80.0184 84.353 79.9606C84.5382 79.8838 84.7234 79.8081 84.9097 79.7345C84.9714 79.7103 85.0478 79.7829 85.0248 79.8481C84.894 80.2276 84.8051 80.623 84.6199 80.9815C84.4127 81.3831 84.2463 81.8068 83.9816 82.178C83.9241 82.2589 83.8927 82.3588 83.8424 82.445C83.7786 82.5565 83.7692 82.6521 83.8508 82.7678C84.1605 83.2041 84.4598 83.6468 84.7622 84.0883C84.8469 84.2124 84.9358 84.3344 85.0133 84.4637C85.098 84.6046 85.0258 84.7286 84.8511 84.7307C84.4001 84.737 83.9481 84.7434 83.4972 84.7307C83.3465 84.7265 83.1697 84.8233 83.0431 84.6561C83.1299 84.491 83.3141 84.4774 83.4532 84.3943C83.5244 84.3522 83.6081 84.3333 83.6813 84.2944C83.7315 84.2671 83.7441 84.1987 83.7085 84.1661C83.4679 83.9401 83.4061 83.5637 83.0765 83.4123C83.0525 83.4018 83.0221 83.3618 83.0253 83.3397C83.0745 83.0222 82.815 82.8645 82.6706 82.65C82.3065 82.1096 81.9361 81.5724 81.5657 81.0361C81.4328 80.8437 81.2999 80.6513 81.1587 80.4652C81.031 80.297 80.9494 80.2949 80.7841 80.4116C80.4262 80.665 80.1061 80.9499 79.8801 81.3358C79.5212 81.9488 79.4061 82.5912 79.6719 83.2619C79.9627 83.9948 80.5173 84.2776 81.2779 84.326C81.5155 84.3407 81.7299 84.2261 81.9465 84.1367C82.115 84.0673 82.2615 83.9411 82.453 83.9285H82.454L82.455 83.9275Z" fill="white"/>
<path d="M54.5368 77.3729C54.9386 77.3729 55.3403 77.3802 55.7411 77.3708C56.3961 77.3571 56.9883 77.5642 57.5502 77.8796C57.7291 77.9795 57.864 78.1246 57.9645 78.3054C58.3527 79.0057 58.3569 79.7017 57.9948 80.4187C57.6673 81.0696 57.1097 81.4123 56.4515 81.5974C55.9734 81.7319 55.4764 81.8076 54.9731 81.8034C54.8894 81.8034 54.8057 81.8034 54.723 81.8129C54.633 81.8234 54.5703 81.8739 54.5535 81.9685C54.5472 82.0011 54.542 82.0347 54.542 82.0684C54.541 82.7066 54.542 83.3458 54.5389 83.984C54.5389 84.1533 54.6048 84.2721 54.7607 84.3425C54.8674 84.3898 54.9741 84.4403 55.0746 84.5002C55.1489 84.5444 55.3079 84.5129 55.2702 84.6632C55.2462 84.7599 55.1311 84.7316 55.0526 84.7316C54.3338 84.7326 53.6139 84.7316 52.8951 84.7273C52.871 84.7273 52.8334 84.7 52.8271 84.6779C52.8198 84.6527 52.8334 84.6043 52.8522 84.5928C53.0113 84.5023 53.1734 84.414 53.3377 84.332C53.4716 84.2647 53.5375 84.1606 53.5386 84.0114C53.5386 83.9104 53.5407 83.8095 53.5407 83.7085C53.5407 81.9443 53.5407 80.1801 53.5407 78.4158C53.5407 78.3317 53.5344 78.2476 53.5407 78.1635C53.5574 77.948 53.4559 77.8165 53.2645 77.7345C53.142 77.682 53.0228 77.6189 52.9066 77.5516C52.869 77.5295 52.8302 77.4822 52.824 77.4422C52.8125 77.3676 52.8857 77.375 52.9286 77.375C53.3806 77.3718 53.8316 77.3729 54.2836 77.3718C54.3673 77.3718 54.451 77.3718 54.5347 77.3718L54.5368 77.3729ZM54.5389 79.5408C54.5389 80.0098 54.5389 80.4787 54.5389 80.9476C54.5389 81.0643 54.5389 81.182 54.5451 81.2988C54.5514 81.4123 54.6079 81.4901 54.7262 81.4996C55.2797 81.5437 55.8269 81.5038 56.3427 81.2882C56.5687 81.1936 56.7529 81.0328 56.9119 80.8225C57.3158 80.2894 57.4309 79.0477 56.9056 78.3065C56.7706 78.1162 56.6095 77.9396 56.3846 77.8491C55.853 77.6326 55.3006 77.5411 54.7272 77.5852C54.609 77.5937 54.5514 77.6715 54.5451 77.785C54.5389 77.9017 54.5389 78.0195 54.5389 78.1362C54.5389 78.6051 54.5389 79.074 54.5389 79.5429V79.5408Z" fill="white"/>
<path d="M88.8871 82.3635C88.8871 81.9945 88.884 81.6244 88.8871 81.2554C88.8902 80.921 88.8536 80.5846 88.9656 80.2576C88.9865 80.1966 88.9781 80.1241 88.9781 80.0578C88.9781 79.4364 88.9739 78.8151 88.9813 78.1948C88.9834 78.0024 88.9164 77.8783 88.7427 77.7984C88.591 77.729 88.4456 77.6459 88.298 77.5671C88.2509 77.5418 88.2237 77.504 88.2405 77.4472C88.2583 77.3873 88.3116 77.3799 88.3598 77.3789C88.5104 77.3736 88.66 77.3726 88.8107 77.3726C89.5798 77.3726 90.3478 77.3747 91.1168 77.3726C91.5719 77.3715 92.003 77.463 92.4278 77.6323C93.222 77.9487 93.6248 78.5102 93.6091 79.4091C93.5976 80.0799 93.3569 80.6161 92.8819 81.0535C92.5952 81.3163 92.2311 81.4667 91.8691 81.5876C91.6211 81.6707 91.3574 81.7274 91.0844 81.7148C90.7349 81.698 90.398 81.842 90.0433 81.8231C89.9522 81.8179 89.9041 81.903 89.8926 81.9934C89.8863 82.0429 89.8842 82.0933 89.8842 82.1438C89.8842 82.7315 89.8947 83.3192 89.879 83.9059C89.8717 84.1709 89.9868 84.3128 90.2159 84.3969C90.3404 84.4432 90.4628 84.4957 90.5832 84.5525C90.6072 84.5641 90.6313 84.6051 90.6303 84.6324C90.6282 84.6882 90.5821 84.7239 90.5319 84.725C89.7639 84.7281 88.9949 84.7271 88.2269 84.7271C88.1829 84.7271 88.1589 84.7071 88.1683 84.6661C88.1746 84.6366 88.1871 84.5956 88.2101 84.5841C88.3723 84.4989 88.5334 84.4074 88.704 84.3422C88.8348 84.2918 88.8861 84.2098 88.885 84.0783C88.885 83.8428 88.8861 83.6084 88.8861 83.3729C88.8861 83.0375 88.8861 82.701 88.8861 82.3656L88.8871 82.3635ZM89.8842 79.5227C89.8842 79.6068 89.8842 79.6898 89.8842 79.7739C89.8842 80.2597 89.8811 80.7454 89.8874 81.2312C89.8905 81.4478 89.9428 81.5045 90.1542 81.5024C90.5518 81.4982 90.9462 81.5298 91.3438 81.4194C92.1505 81.1954 92.5869 80.6708 92.5973 79.8349C92.6005 79.6173 92.6067 79.3986 92.5952 79.182C92.5513 78.4176 92.0103 77.8688 91.3763 77.6943C91.0289 77.5986 90.6627 77.546 90.2912 77.5702C89.9041 77.5955 89.8895 77.5913 89.8863 77.9645C89.8821 78.4839 89.8853 79.0033 89.8853 79.5227H89.8842Z" fill="white"/>
<path d="M75.1582 84.0013C75.4983 83.8477 75.7839 83.7142 76.0539 83.5481C76.0968 83.5218 76.1355 83.4871 76.1815 83.4703C76.2056 83.4619 76.2506 83.4756 76.2673 83.4945C76.284 83.5134 76.2914 83.5639 76.2778 83.5828C76.2181 83.6627 76.1533 83.7405 76.0842 83.812C75.8498 84.0517 75.6102 84.2872 75.3779 84.5291C75.2587 84.6531 75.1247 84.7488 74.9636 84.8045C74.7784 84.8687 74.6319 84.8213 74.5367 84.6479C74.4321 84.4586 74.3159 84.2704 74.3191 84.0391C74.3191 83.976 74.2908 83.9108 74.2688 83.8488C74.2479 83.7878 74.137 83.7636 74.1035 83.8162C73.9759 84.0149 73.8064 84.1758 73.6494 84.3503C73.4391 84.5858 73.1807 84.7362 72.8793 84.793C72.4838 84.8666 72.0894 84.8939 71.7085 84.6889C71.4417 84.5448 71.3287 84.3356 71.3078 84.0444C71.2733 83.5576 71.4647 83.1622 71.7765 82.8142C72.0569 82.5009 72.398 82.2549 72.736 82.012C73.1566 81.7092 73.595 81.4338 74.0324 81.1551C74.1579 81.0752 74.2186 80.9869 74.226 80.8334C74.2427 80.5075 74.1715 80.1973 74.0659 79.8987C73.9288 79.5118 73.5281 79.3268 73.1284 79.434C72.5466 79.5896 72.2871 79.8893 72.2149 80.4896C72.2108 80.5233 72.2149 80.5569 72.2108 80.5905C72.1919 80.7714 72.2819 80.9869 72.1522 81.1267C72.0465 81.2403 71.8634 81.2813 71.7138 81.3538C71.5631 81.4264 71.4135 81.501 71.2597 81.5683C71.2377 81.5778 71.1916 81.562 71.1728 81.542C71.154 81.5221 71.1404 81.4769 71.1498 81.4537C71.3988 80.8671 71.6688 80.2919 72.127 79.8325C72.4577 79.5002 72.7684 79.1449 73.232 78.983C73.753 78.8011 74.249 78.8368 74.7114 79.1512C74.8244 79.2279 74.8924 79.3436 74.9552 79.4655C75.2356 80.0102 75.2754 80.5863 75.1749 81.1783C75.1519 81.3107 75.1247 81.4411 75.1247 81.5757C75.1247 82.3148 75.1216 83.055 75.1216 83.7941C75.1216 83.8435 75.1373 83.8919 75.1561 84.0044L75.1582 84.0013ZM74.2228 82.3379C74.2228 82.3379 74.2197 82.3379 74.2186 82.3379C74.2186 82.0877 74.2228 81.8364 74.2165 81.5862C74.2134 81.4558 74.1245 81.4096 74.0156 81.4779C73.4925 81.808 73.0164 82.1981 72.6178 82.6723C72.4001 82.9309 72.285 83.24 72.307 83.5965C72.3353 84.0423 72.6345 84.3104 73.0687 84.2178C73.4025 84.1463 73.6756 83.9539 73.8964 83.6921C74.1046 83.4461 74.2668 83.1854 74.226 82.8374C74.2071 82.6723 74.2228 82.5041 74.2228 82.3369V82.3379Z" fill="white"/>
<path d="M111.114 83.9679C111.422 83.8911 111.686 83.7166 111.964 83.5726C112.022 83.5421 112.074 83.4958 112.133 83.4685C112.154 83.459 112.202 83.4759 112.217 83.4969C112.233 83.5169 112.234 83.5621 112.221 83.5873C112.199 83.6315 112.167 83.6714 112.132 83.7072C111.851 83.9942 111.565 84.2781 111.285 84.5661C111.177 84.6776 111.048 84.7543 110.905 84.8038C110.721 84.8679 110.578 84.8185 110.481 84.6418C110.376 84.4526 110.261 84.2644 110.264 84.032C110.264 83.9689 110.234 83.9038 110.212 83.8417C110.19 83.7808 110.081 83.7618 110.047 83.8154C109.929 84.0005 109.779 84.1561 109.627 84.3128C109.183 84.7764 108.629 84.9057 108.022 84.8216C107.402 84.7354 107.117 84.2423 107.288 83.582C107.411 83.1047 107.723 82.7567 108.092 82.4581C108.69 81.9745 109.324 81.5413 109.984 81.147C110.114 81.0692 110.165 80.9735 110.172 80.8221C110.189 80.4962 110.119 80.186 110.011 79.8874C109.872 79.5026 109.471 79.3207 109.071 79.4301C108.474 79.592 108.211 79.9137 108.159 80.5393C108.143 80.737 108.236 80.9767 108.095 81.1228C107.965 81.2585 107.747 81.3089 107.567 81.3962C107.447 81.454 107.326 81.5118 107.203 81.5634C107.181 81.5728 107.135 81.555 107.117 81.535C107.099 81.515 107.089 81.4687 107.099 81.4456C107.384 80.839 107.649 80.2249 108.149 79.7455C108.465 79.4427 108.766 79.1273 109.189 78.9769C109.707 78.793 110.206 78.8297 110.666 79.1515C110.764 79.2188 110.827 79.3176 110.885 79.4227C111.059 79.7371 111.154 80.0746 111.163 80.43C111.172 80.7633 111.205 81.1018 111.088 81.4288C111.071 81.474 111.075 81.5287 111.075 81.5791C111.074 82.3351 111.073 83.091 111.074 83.847C111.074 83.8775 111.094 83.909 111.115 83.969L111.114 83.9679ZM110.169 82.3845C110.169 82.3845 110.166 82.3845 110.164 82.3845C110.164 82.1174 110.168 81.8504 110.162 81.5833C110.159 81.454 110.07 81.4099 109.959 81.4793C109.435 81.8083 108.961 82.2005 108.562 82.6747C108.343 82.9344 108.23 83.2435 108.253 83.5999C108.282 84.0457 108.584 84.3128 109.017 84.2181C109.35 84.1456 109.623 83.9532 109.845 83.6914C110.053 83.4454 110.216 83.1836 110.172 82.8355C110.154 82.6873 110.169 82.5349 110.169 82.3845Z" fill="white"/>
<path d="M98.0131 83.9957C98.3322 83.8884 98.5498 83.7707 98.7612 83.6371C98.8166 83.6014 98.8742 83.5667 98.9349 83.5415C98.96 83.5309 99.0039 83.5404 99.0259 83.5572C99.0426 83.5709 99.052 83.6214 99.0395 83.6382C98.7852 83.9925 98.5006 84.3205 98.1784 84.6128C98.1292 84.657 98.0737 84.6959 98.0162 84.7295C97.6845 84.9198 97.4522 84.8357 97.3152 84.4656C97.2336 84.2469 97.1655 84.023 97.0829 83.778C96.8935 83.8516 96.8014 84.003 96.6978 84.1492C96.2354 84.8042 95.4151 84.9829 94.6879 84.7453C94.4137 84.6549 94.2673 84.4572 94.2212 84.2049C94.1396 83.7602 94.2034 83.328 94.5131 82.9769C94.7224 82.7392 94.9432 82.5111 95.1995 82.3176C95.7049 81.936 96.2197 81.568 96.7596 81.2347C97.1373 81.0013 97.1781 80.873 97.0818 80.443C97.0452 80.28 97.0023 80.1181 96.9521 79.9594C96.8035 79.4947 96.3369 79.2812 95.8807 79.4536C95.3648 79.6482 95.1137 80.0288 95.1064 80.5671C95.0991 81.1443 95.1273 81.0917 94.6 81.3546C94.51 81.3998 94.4211 81.4471 94.3279 81.4818C94.2505 81.5102 94.1616 81.527 94.0883 81.4702C93.9984 81.3998 94.0622 81.3199 94.0904 81.2463C94.3907 80.4546 94.9338 79.8427 95.5594 79.3044C95.9843 78.9385 96.499 78.8102 97.0567 78.8964C97.2252 78.9227 97.3706 79.0037 97.4972 79.1193C97.8341 79.4263 98.0287 79.7901 98.0225 80.2643C98.0089 81.3714 98.0141 82.4796 98.012 83.5867C98.012 83.7023 98.012 83.818 98.012 83.9957H98.0131ZM97.1132 82.3418C97.1132 82.3418 97.1111 82.3418 97.109 82.3418C97.109 82.0905 97.1132 81.8393 97.1069 81.589C97.1038 81.4618 97.0128 81.405 96.905 81.4681C96.3996 81.7625 95.9298 82.1074 95.55 82.5553C95.3565 82.7834 95.2173 83.0526 95.143 83.3522C95.0719 83.6403 95.1765 83.8769 95.3387 84.0955C95.3837 84.1555 95.4726 84.2038 95.5479 84.2165C95.7279 84.2448 95.9183 84.2669 96.0889 84.1839C96.3745 84.044 96.6466 83.88 96.8464 83.6235C97.0222 83.3964 97.1572 83.1545 97.1164 82.8444C97.0944 82.6804 97.1122 82.51 97.1122 82.3429L97.1132 82.3418Z" fill="white"/>
<path d="M64.3855 79.2874C63.9273 79.2874 63.4606 79.2716 62.996 79.2926C62.6497 79.3074 62.4185 79.5271 62.2553 79.8225C62.0753 80.1485 61.9843 80.507 61.8765 80.8592C61.8566 80.9233 61.8556 80.9927 61.8325 81.0548C61.8043 81.1326 61.7698 81.2472 61.6882 81.2409C61.5511 81.2314 61.5804 81.0958 61.5793 81.0012C61.5762 80.4807 61.5772 79.9592 61.5772 79.4388C61.5772 79.3715 61.5793 79.3042 61.5877 79.238C61.6055 79.1076 61.6808 79.0214 61.8116 79.0025C61.91 78.9877 62.0115 78.9888 62.1119 78.9888C63.1321 78.9888 64.1522 78.9888 65.1734 78.9888C65.2571 78.9888 65.3408 78.9898 65.4235 78.9982C65.5365 79.0098 65.6024 79.1118 65.5553 79.2159C65.4789 79.3831 65.3963 79.5481 65.3042 79.7079C64.9893 80.2599 64.6691 80.8098 64.351 81.3607C63.9241 82.0999 63.4972 82.839 63.0703 83.5781C63.0452 83.6212 63.0065 83.658 62.9877 83.7043C62.8987 83.9177 62.7334 84.0986 62.7177 84.3435C62.9155 84.537 63.1603 84.4098 63.3811 84.4329C63.5966 84.456 63.8153 84.4339 64.0329 84.4371C64.4724 84.4424 64.7601 84.211 64.9275 83.8283C65.0343 83.5834 65.1033 83.3226 65.1797 83.0661C65.2613 82.7938 65.3304 82.5183 65.4099 82.2449C65.4172 82.2187 65.4507 82.1829 65.4748 82.1808C65.5302 82.1745 65.57 82.2187 65.5721 82.2691C65.5804 82.4363 65.5825 82.6045 65.5836 82.7727C65.5836 83.3268 65.5878 83.882 65.5815 84.436C65.5783 84.6884 65.5375 84.7315 65.2854 84.7325C64.3657 84.7378 63.4449 84.7346 62.5252 84.7357C62.2574 84.7357 61.9895 84.7389 61.7227 84.7336C61.5051 84.7283 61.4653 84.6463 61.572 84.4455C61.5804 84.4308 61.5867 84.415 61.595 84.4003C62.1245 83.4688 62.6539 82.5383 63.1854 81.6078C63.5506 80.9686 63.921 80.3325 64.283 79.6911C64.3458 79.5797 64.4431 79.4703 64.3876 79.2916L64.3855 79.2874Z" fill="white"/>
<path d="M67.5296 84.4343C68.0423 84.4343 68.4933 84.45 68.9432 84.4301C69.3711 84.4101 69.6547 84.1493 69.8033 83.7645C69.9288 83.4375 70.0491 83.1064 70.1213 82.7594C70.1611 82.5712 70.1998 82.3704 70.3139 82.2305C70.3861 82.2137 70.4028 82.2326 70.4028 82.2789C70.4038 82.9676 70.4091 83.6573 70.4059 84.3459C70.4038 84.715 70.3871 84.7276 69.9958 84.7329C69.7614 84.736 69.527 84.7329 69.2927 84.7329C68.4891 84.7329 67.6866 84.7329 66.883 84.7329C66.7658 84.7329 66.6486 84.7297 66.5325 84.7202C66.453 84.7139 66.387 84.6077 66.4122 84.5331C66.4331 84.47 66.4561 84.4059 66.4896 84.348C66.9405 83.5648 67.3967 82.7846 67.8456 81.9992C68.17 81.4325 68.486 80.8606 68.8051 80.2907C68.9526 80.0279 69.1022 79.7661 69.2414 79.499C69.3021 79.3834 69.2487 79.293 69.1242 79.2909C68.7224 79.2845 68.3196 79.2677 67.9199 79.2919C67.5505 79.314 67.2398 79.4633 67.1059 79.8523C66.9688 80.2476 66.8317 80.6429 66.6905 81.0372C66.6685 81.0982 66.6319 81.1539 66.5942 81.2065C66.5869 81.2159 66.5283 81.2065 66.5147 81.1876C66.4969 81.1644 66.4938 81.1245 66.4938 81.0919C66.4927 80.4863 66.4885 79.8817 66.4938 79.2761C66.4959 79.0343 66.5419 78.9902 66.8003 78.9891C67.9544 78.9849 69.1096 78.9859 70.2636 78.9891C70.4603 78.9891 70.5001 79.0616 70.4195 79.2404C70.385 79.3171 70.3494 79.3928 70.3076 79.4654C70.0575 79.9007 69.8064 80.3359 69.5542 80.7702C69.2184 81.3495 68.8815 81.9277 68.5466 82.5081C68.3039 82.9287 68.0591 83.3482 67.8226 83.7719C67.718 83.959 67.607 84.1472 67.5286 84.4322L67.5296 84.4343Z" fill="white"/>
<path d="M99.3356 82.2156C99.4465 82.2114 99.4654 82.2923 99.48 82.347C99.5627 82.6403 99.7029 82.9095 99.8494 83.1713C100.162 83.7317 100.625 84.1217 101.228 84.3488C101.572 84.4782 101.922 84.4477 102.268 84.4203C102.504 84.4025 102.67 84.2248 102.72 84.004C102.789 83.7012 102.751 83.4036 102.526 83.1555C102.274 82.8779 101.968 82.6782 101.636 82.5131C101.112 82.2524 100.617 81.9422 100.137 81.6079C99.4151 81.1053 99.3157 80.1117 99.9048 79.4557C100.251 79.0698 100.669 78.8732 101.186 78.8826C101.336 78.8858 101.487 78.8879 101.636 78.8826C101.895 78.8742 102.143 78.931 102.351 79.074C102.538 79.2023 102.679 79.1865 102.845 79.054C102.923 78.992 103.017 79.0446 103.026 79.1371C103.033 79.2033 103.034 79.2717 103.034 79.3379C103.034 79.9088 103.035 80.4797 103.033 81.0517C103.033 81.1347 103.021 81.2178 103.003 81.2987C102.998 81.3198 102.954 81.3355 102.924 81.3471C102.916 81.3503 102.891 81.3334 102.886 81.3198C102.845 81.2294 102.797 81.14 102.77 81.0443C102.68 80.7173 102.515 80.4229 102.351 80.1317C102.051 79.6007 101.567 79.3211 100.989 79.1981C100.749 79.1465 100.521 79.237 100.322 79.36C100.057 79.524 99.9592 79.9141 100.087 80.2106C100.197 80.4671 100.39 80.6532 100.622 80.793C101.064 81.0611 101.511 81.324 101.964 81.5721C102.367 81.7929 102.693 82.0999 103.003 82.4311C103.148 82.5867 103.197 82.7886 103.224 82.982C103.274 83.3342 103.234 83.6833 103.087 84.0155C103.017 84.1722 102.927 84.3183 102.787 84.413C102.456 84.6401 102.117 84.8272 101.688 84.8409C101.061 84.8619 100.462 84.7378 99.863 84.5917C99.6506 84.5402 99.5501 84.4414 99.5083 84.1911C99.4403 83.779 99.4444 83.3595 99.345 82.9505C99.2885 82.7181 99.3346 82.4605 99.3346 82.2145L99.3356 82.2156Z" fill="white"/>
<path d="M104.445 81.6697C104.445 80.9821 104.449 80.2944 104.444 79.6068C104.443 79.3503 104.436 79.3503 104.176 79.2746C104.032 79.2325 103.888 79.1957 103.745 79.1495C103.727 79.1432 103.708 79.0948 103.713 79.0706C103.718 79.0454 103.751 79.0086 103.774 79.0065C103.907 78.996 104.042 78.9771 104.172 78.9928C104.406 79.0191 104.549 78.9119 104.659 78.7226C104.801 78.4766 104.949 78.2337 105.095 77.9908C105.121 77.9477 105.144 77.9015 105.179 77.8657C105.198 77.8468 105.239 77.8331 105.264 77.8394C105.29 77.8458 105.325 77.8794 105.326 77.9025C105.337 78.1033 105.34 78.3042 105.345 78.5039C105.347 78.588 105.344 78.6721 105.351 78.7552C105.362 78.9119 105.413 78.9728 105.561 78.9802C105.744 78.9897 105.928 78.9865 106.111 78.9876C106.245 78.9886 106.379 78.9844 106.512 78.9918C106.702 79.0023 106.764 79.0832 106.746 79.2914C106.738 79.385 106.688 79.4691 106.591 79.4376C106.252 79.3293 105.889 79.447 105.552 79.3135C105.448 79.2714 105.363 79.3524 105.353 79.4733C105.345 79.5564 105.344 79.6405 105.344 79.7246C105.344 80.9495 105.344 82.1733 105.344 83.3982C105.344 83.5485 105.337 83.6968 105.402 83.8429C105.535 84.1404 105.77 84.2571 106.087 84.1678C106.199 84.1362 106.309 84.0973 106.422 84.07C106.446 84.0637 106.492 84.0847 106.504 84.1068C106.516 84.131 106.512 84.1783 106.495 84.2004C106.444 84.2656 106.392 84.3339 106.325 84.3812C106.176 84.4884 106.019 84.5841 105.864 84.683C105.321 85.0257 104.721 84.7965 104.513 84.1783C104.458 84.0143 104.444 83.8524 104.444 83.6852C104.444 83.0144 104.444 82.3436 104.444 81.6718H104.443L104.445 81.6697Z" fill="white"/>
<path d="M60.2669 81.6699C60.2669 82.4417 60.2637 83.2134 60.2679 83.9851C60.27 84.2921 60.292 84.3152 60.5766 84.4225C60.608 84.434 60.6488 84.4309 60.6718 84.4498C60.7931 84.5507 61.0202 84.4635 61.0736 84.6801C60.9417 84.7789 60.7911 84.7284 60.6498 84.7295C60.0482 84.7358 59.4476 84.7326 58.846 84.7316C58.7968 84.7316 58.7466 84.7242 58.6974 84.7211C58.6545 84.719 58.6336 84.6958 58.6482 84.6538C58.6587 84.6254 58.6765 84.5875 58.7016 84.5781C58.8407 84.5245 58.982 84.4708 59.1253 84.4288C59.298 84.3783 59.3649 84.2616 59.3649 84.0923C59.3649 84.025 59.366 83.9578 59.366 83.8915C59.366 82.5489 59.366 81.2073 59.366 79.8647C59.366 79.7974 59.3597 79.7301 59.366 79.6639C59.3848 79.4788 59.2781 79.3842 59.1274 79.3264C58.9726 79.2665 58.8125 79.217 58.6576 79.156C58.6377 79.1487 58.62 79.1003 58.6252 79.0751C58.6304 79.0499 58.6629 79.0099 58.6848 79.0099C59.1515 79.0026 59.6181 78.9973 60.0848 79.0004C60.203 79.0004 60.2574 79.093 60.2606 79.2044C60.2669 79.3884 60.2669 79.5735 60.2669 79.7574C60.2669 80.3946 60.2669 81.0328 60.2669 81.6699Z" fill="white"/>
<path d="M75.42 25.1259C75.3384 25.4528 75.261 25.7903 75.1689 26.1236C75.1302 26.2656 75.0256 26.3371 74.8686 26.336C74.0536 26.3329 73.2385 26.335 72.415 26.335C72.4339 26.2845 72.436 26.2393 72.4548 26.2309C72.6829 26.1268 72.7928 25.967 72.8513 25.7062C73.0606 24.761 73.3013 23.8232 73.5492 22.8874C73.6026 22.6856 73.5775 22.5689 73.3923 22.4816C73.3536 22.4637 73.3285 22.4143 73.3054 22.388C73.3086 22.2945 73.3735 22.305 73.4164 22.305C74.1676 22.3018 74.9199 22.3018 75.6712 22.3029C75.7381 22.3029 75.8051 22.3039 75.871 22.3155C75.9662 22.3323 76.0238 22.3964 76.0018 22.4921C75.9296 22.8002 75.848 23.1072 75.7664 23.4121C75.7538 23.4573 75.7308 23.5088 75.6565 23.513C75.6136 23.2765 75.5718 23.0325 75.5268 22.7907C75.4891 22.5878 75.4253 22.5121 75.239 22.5058C74.9555 22.4953 74.6719 22.5005 74.3873 22.5068C74.2576 22.51 74.1697 22.5868 74.1373 22.715C74.0316 23.1366 73.9249 23.5572 73.8276 23.9798C73.7962 24.1144 73.8778 24.1933 74.019 24.2164C74.3497 24.269 74.6102 24.167 74.7902 23.8789C74.8519 23.779 74.899 23.6686 75.0036 23.6055C75.0245 23.5929 75.0612 23.6013 75.0884 23.6077C75.0988 23.6098 75.1114 23.6381 75.1082 23.6508C75.0047 24.0713 74.9011 24.4929 74.7923 24.9124C74.787 24.9335 74.7431 24.9587 74.7169 24.9576C74.6918 24.9576 74.65 24.9303 74.6447 24.9082C74.6092 24.7453 74.606 24.5592 74.4491 24.4635C74.2838 24.3636 74.0902 24.4246 73.9092 24.4214C73.7951 24.4193 73.7282 24.4971 73.6853 24.5939C73.6591 24.6548 73.6382 24.719 73.6214 24.7831C73.5314 25.1395 73.4436 25.496 73.3567 25.8524C73.2845 26.152 73.3337 26.2235 73.6225 26.233C73.7564 26.2372 73.8903 26.2277 74.0232 26.2351C74.4606 26.2624 74.7494 26.049 74.9513 25.6789C75.0476 25.5033 75.1564 25.334 75.2631 25.1648C75.2882 25.1248 75.328 25.0922 75.4179 25.1259H75.42Z" fill="white"/>
<path d="M87.8743 23.5699C87.8638 24.389 87.573 25.1113 87.0822 25.7484C86.8332 26.0712 86.4722 26.2773 86.0893 26.4055C85.653 26.5517 85.1476 26.2405 84.9938 25.7568C84.8756 25.3846 84.8515 25.0177 84.954 24.6234C85.0848 24.1177 85.225 23.6288 85.519 23.1862C85.7796 22.7951 86.1186 22.5259 86.5308 22.3156C86.8845 22.1358 87.1774 22.2305 87.4589 22.4407C87.7299 22.6436 87.8502 22.9338 87.8732 23.2671C87.8806 23.367 87.8743 23.469 87.8743 23.5699ZM87.3752 23.9085C87.3815 23.5773 87.3898 23.2808 87.2298 23.0001C87.0278 22.6468 86.9096 22.5711 86.5078 22.5995C86.3843 22.6079 86.2818 22.6479 86.1929 22.732C86.0485 22.8718 85.9156 23.0158 85.8172 23.1977C85.6059 23.5846 85.4981 23.9999 85.4081 24.4279C85.3182 24.8568 85.4019 25.2574 85.5368 25.6559C85.6122 25.8777 85.7806 26.0123 85.9941 26.0901C86.0537 26.1122 86.1332 26.1311 86.1876 26.1101C86.4503 26.005 86.7223 25.9082 86.8709 25.6349C87.168 25.086 87.4338 24.5288 87.3762 23.9074L87.3752 23.9085Z" fill="white"/>
<path d="M89.2793 22.7028C89.3003 22.6408 89.3034 22.5556 89.3463 22.5199C90.0233 21.9595 90.7933 22.256 90.9963 22.9856C91.1208 23.4325 91.0445 23.8446 90.9513 24.2641C90.7996 24.9486 90.4878 25.5437 89.9542 26.0157C89.7878 26.1629 89.61 26.2786 89.4101 26.3627C88.9633 26.5509 88.4548 26.3585 88.2267 25.9274C88.1221 25.7298 88.0834 25.5268 88.074 25.304C88.0426 24.5964 88.2288 23.9498 88.572 23.341C88.6871 23.137 88.8158 22.9394 89.0784 22.9026L89.0837 22.9078C89.0439 23.0172 89.0094 23.1286 88.9633 23.2359C88.8765 23.4356 88.7635 23.6249 88.6944 23.831C88.5323 24.3177 88.5657 24.8245 88.5846 25.326C88.5929 25.55 88.7133 25.7445 88.842 25.918C88.9947 26.1251 89.2856 26.1787 89.5189 26.0599C89.6215 26.0073 89.7209 25.94 89.8035 25.8601C90.1917 25.4858 90.3811 25.0054 90.4794 24.4881C90.5077 24.3409 90.5213 24.1926 90.5569 24.0444C90.6458 23.6659 90.5223 23.3084 90.3644 22.9783C90.2022 22.6408 89.9385 22.543 89.5702 22.6208C89.4729 22.6418 89.3787 22.6776 89.2835 22.707L89.2783 22.7018L89.2793 22.7028Z" fill="white"/>
<path d="M92.0006 26.2888C91.9745 26.3035 91.9473 26.3309 91.9211 26.3309C91.5706 26.334 91.219 26.3351 90.8685 26.333C90.8445 26.333 90.8193 26.3088 90.7974 26.2972C90.7911 26.2289 90.8455 26.2089 90.8863 26.1931C91.1311 26.0985 91.2337 25.904 91.2923 25.6611C91.5089 24.7685 91.7338 23.8769 91.9556 22.9853C91.964 22.9527 91.9755 22.9212 91.9818 22.8886C92.01 22.732 91.9755 22.6783 91.7945 22.6005C91.739 22.5763 91.6449 22.589 91.6648 22.4891C91.6805 22.4092 91.761 22.4144 91.8238 22.4029C92.0027 22.3682 92.1712 22.2851 92.3616 22.304C92.5311 22.3209 92.6159 22.3987 92.5834 22.5585C92.5165 22.8855 92.4474 23.2124 92.3679 23.5373C92.2067 24.2029 92.0372 24.8673 91.873 25.5318C91.8011 25.8213 91.844 26.074 92.0017 26.2899L92.0006 26.2888Z" fill="white"/>
<path d="M79.4409 25.6287C79.2913 25.8758 79.0663 26.0535 78.8602 26.2459C78.7786 26.3227 78.6624 26.37 78.5547 26.4099C78.472 26.4404 78.3935 26.4036 78.3423 26.3227C78.2178 26.124 78.2157 25.9084 78.2722 25.6929C78.4343 25.081 78.6059 24.4712 78.7723 23.8603C78.7985 23.7646 78.8194 23.6668 78.8393 23.5691C78.8759 23.3977 78.7566 23.3325 78.5808 23.2463C79.0192 23.2316 79.173 22.8636 79.4346 22.6901C79.5026 22.6827 79.5215 22.7006 79.5309 22.7385C79.5675 22.8794 79.4775 23.0528 79.6177 23.1632C79.7286 23.2505 79.8793 23.1885 80.0049 23.2284C80.0321 23.2368 80.0645 23.2631 80.0729 23.2894C80.0928 23.3483 80.0478 23.3788 80.0007 23.3956C79.9703 23.4061 79.9348 23.4114 79.9023 23.4093C79.3237 23.3725 79.3844 23.5207 79.2494 23.9612C79.0747 24.5342 78.9219 25.1146 78.7629 25.6929C78.7503 25.737 78.7493 25.8001 78.7723 25.8338C78.8236 25.9074 78.8926 25.8548 78.946 25.8264C79.105 25.7412 79.2379 25.5951 79.443 25.6319L79.4398 25.6287H79.4409Z" fill="white"/>
<path d="M84.7643 23.0454C84.7947 23.3398 84.6649 23.61 84.4808 23.8182C84.1261 24.2188 83.7285 24.5815 83.3476 24.959C83.3361 24.9705 83.3173 24.9821 83.3037 24.9811C83.2734 24.9789 83.2336 24.9768 83.2158 24.9579C83.198 24.939 83.1855 24.8885 83.197 24.8707C83.3351 24.6614 83.4847 24.4617 83.6521 24.2735C83.9566 23.9307 84.1836 23.5427 84.1669 23.056C84.1617 22.9056 84.1816 22.7447 84.0257 22.6512C83.8645 22.5544 83.558 22.5828 83.4094 22.7037C83.221 22.8572 83.1039 23.0549 83.0442 23.2915C82.9856 23.527 82.8339 23.6668 82.5933 23.7036C82.5608 23.7089 82.5263 23.7026 82.4939 23.7015C82.4279 23.6994 82.3704 23.6111 82.4039 23.5596C82.7408 23.0528 83.13 22.5986 83.672 22.3C83.7913 22.2338 83.9168 22.2012 84.056 22.2012C84.485 22.2043 84.7382 22.4419 84.7643 22.8804C84.7675 22.9308 84.7643 22.9813 84.7643 23.0444V23.0454Z" fill="white"/>
<path d="M82.512 25.8359C82.8981 25.8359 83.2465 25.8317 83.595 25.838C83.8032 25.8412 83.9392 25.7382 84.0428 25.572C84.1035 25.4743 84.1296 25.3544 84.2332 25.2861C84.2447 25.2787 84.2677 25.2808 84.2824 25.2871C84.2949 25.2924 84.3138 25.3123 84.3117 25.3218C84.2468 25.612 84.1851 25.9032 84.1077 26.1903C84.0941 26.2418 84.0166 26.2796 83.9622 26.3154C83.9371 26.3322 83.8984 26.3343 83.866 26.3343C83.2162 26.3343 82.5664 26.3343 81.9167 26.3311C81.8194 26.3311 81.7587 26.225 81.8152 26.1587C82.0883 25.8433 82.3771 25.5426 82.7004 25.2787C82.7182 25.264 82.7684 25.2692 82.7903 25.285C82.8406 25.3197 82.827 25.3702 82.7998 25.4154C82.7255 25.5426 82.5717 25.6099 82.5131 25.838L82.512 25.8359Z" fill="white"/>
<path d="M77.3227 25.9354C77.3719 25.6526 77.328 25.4213 77.1061 25.2383C76.9649 25.1216 76.8498 24.9734 76.7127 24.8504C76.1875 24.3815 76.2534 23.9262 76.5976 23.4247C76.6217 23.39 76.6813 23.3574 76.7211 23.3606C76.8247 23.3679 76.7912 23.4457 76.7776 23.5088C76.7609 23.5898 76.7378 23.6707 76.7284 23.7538C76.7054 23.9483 76.7588 24.1144 76.9094 24.2521C77.0706 24.3993 77.2129 24.5655 77.375 24.7106C77.8647 25.1511 77.827 25.6274 77.4514 26.1373C77.4284 26.1688 77.3614 26.1899 77.3217 26.1825C77.2694 26.172 77.2641 26.1121 77.2788 26.0616C77.2934 26.0132 77.3123 25.967 77.3227 25.9365V25.9354Z" fill="white"/>
<path d="M59.2585 77.4174C59.2575 77.0715 59.518 76.776 59.8183 76.7823C60.1239 76.7876 60.3697 77.0788 60.3666 77.43C60.3624 77.7822 60.1626 77.9767 59.8068 77.9735C59.4542 77.9704 59.2596 77.7738 59.2585 77.4174Z" fill="white"/>
<path d="M76.106 25.2184C76.1123 25.2836 76.1207 25.3488 76.1238 25.414C76.1468 25.8945 76.3571 26.1415 76.8248 26.232C76.9033 26.2467 76.9933 26.2183 77.0613 26.3034C77.0299 26.3371 77.0017 26.3928 76.964 26.4012C76.5779 26.4874 76.2033 26.4223 75.834 26.3045C75.767 26.2835 75.7283 26.213 75.7398 26.1436C75.7921 25.8188 75.8769 25.5033 76.0014 25.2026C76.0359 25.2079 76.0715 25.2132 76.106 25.2184Z" fill="white"/>
<path d="M77.8396 24.4361C77.7088 24.2017 77.7496 24.0671 77.7423 23.9367C77.7183 23.5025 77.6157 23.3826 77.1878 23.3101C77.1229 23.2996 77.0549 23.308 77.0078 23.2491C77.0246 23.2218 77.0361 23.1786 77.0601 23.1702C77.3908 23.0493 77.7141 23.0987 78.0269 23.2354C78.1378 23.2838 78.1441 23.3942 78.1305 23.4941C78.0897 23.7916 77.9579 24.0587 77.8386 24.4351L77.8396 24.4361Z" fill="white"/>
<path d="M80.1582 25.7369C80.3214 25.74 80.4355 25.8567 80.4376 26.0239C80.4397 26.21 80.2461 26.3982 80.0484 26.4013C79.9322 26.4024 79.769 26.2331 79.7596 26.0996C79.747 25.924 79.9573 25.7337 80.1582 25.7369Z" fill="white"/>
<path d="M106.791 83.8815C106.777 83.8889 106.764 83.9016 106.751 83.9016C106.738 83.9016 106.728 83.8846 106.716 83.8751C106.73 83.8677 106.744 83.855 106.756 83.856C106.769 83.856 106.779 83.873 106.791 83.8825V83.8815Z" fill="white"/>
<path d="M89.0796 22.9037C89.1131 22.87 89.1466 22.8364 89.18 22.8027L89.1842 22.808C89.1507 22.8416 89.1173 22.8753 89.0848 22.9089L89.0796 22.9037Z" fill="white"/>
<path d="M79.4443 25.6321C79.4507 25.6183 79.4602 25.5908 79.4644 25.5918C79.4971 25.5982 79.4887 25.613 79.4412 25.6289L79.4443 25.6321Z" fill="white"/>
<path d="M89.1794 22.8025C89.2129 22.7689 89.2464 22.7352 89.2788 22.7026L89.2841 22.7079C89.2506 22.7415 89.2171 22.7752 89.1836 22.8078L89.1794 22.8025Z" fill="white"/>
<path d="M82.4543 83.9266C82.4691 83.9128 82.4839 83.899 82.4987 83.8853C82.4966 83.8948 82.4966 83.9075 82.4913 83.9118C82.4818 83.9202 82.4681 83.9224 82.4554 83.9277L82.4543 83.9266Z" fill="white"/>
<path d="M83.8595 5.35554C83.826 5.43335 83.7758 5.49853 83.6921 5.52061C83.6701 5.52692 83.6272 5.50589 83.6147 5.48486C83.6042 5.46594 83.6115 5.41863 83.6293 5.40286C83.6953 5.34293 83.7821 5.3608 83.8616 5.35765L83.8585 5.35449L83.8595 5.35554Z" fill="white"/>
<path d="M83.8617 5.35885C83.8691 5.344 83.8786 5.31537 83.8828 5.31643C83.9177 5.32386 83.9092 5.33976 83.8596 5.35673L83.8628 5.35991L83.8617 5.35885Z" fill="white"/>
<path d="M79.3432 4.14777C79.363 4.12358 79.3777 4.09415 79.4028 4.07837C79.4373 4.05524 79.4656 4.06996 79.4708 4.10992C79.4708 4.11623 79.4478 4.132 79.4342 4.1341C79.4038 4.14041 79.3725 4.14146 79.3411 4.14461L79.3432 4.14777Z" fill="white"/>
<path d="M85.6707 9.69043C85.8297 9.70024 85.9295 9.76823 85.9699 9.8944H85.9689C85.8255 9.8944 85.7261 9.82606 85.6665 9.69569L85.6717 9.69043H85.6707Z" fill="white"/>
<path d="M86.2688 10.0984C86.2825 10.1058 86.31 10.1164 86.3089 10.1207C86.3005 10.1535 86.2857 10.145 86.272 10.0952L86.2688 10.0984Z" fill="white"/>
<path d="M86.2722 10.0966C86.2575 10.0892 86.229 10.0797 86.23 10.0765C86.2363 10.0425 86.2522 10.05 86.2691 10.0998L86.2722 10.0966Z" fill="white"/>
<path d="M85.9701 9.89453C85.9848 9.90832 85.9996 9.92316 86.0133 9.938C86.0038 9.93588 85.9912 9.938 85.9859 9.93164C85.9774 9.9221 85.9743 9.90832 85.969 9.89665L85.9701 9.89559V9.89453Z" fill="white"/>
<path d="M79.6465 9.18701C79.7229 9.22276 79.7856 9.27428 79.8076 9.35839C79.8139 9.38047 79.794 9.42357 79.7731 9.43619C79.7532 9.44776 79.7072 9.44145 79.6904 9.42463C79.6287 9.36049 79.6433 9.27323 79.6392 9.19332L79.6465 9.18701Z" fill="white"/>
<path d="M88.4831 6.36812C88.4685 6.50901 88.4266 6.62677 88.254 6.62256C88.2414 6.62256 88.2205 6.60153 88.2205 6.58997C88.2174 6.41544 88.3408 6.38074 88.4769 6.36182L88.4831 6.36812Z" fill="white"/>
<path d="M88.8806 6.06349C88.8943 6.04865 88.9091 6.03486 88.9228 6.02002C88.9207 6.02956 88.9218 6.04123 88.9154 6.04653C88.9059 6.05501 88.8922 6.05819 88.8806 6.06243V6.06349Z" fill="white"/>
<path d="M88.4766 6.36207C88.4924 6.34829 88.5093 6.33556 88.5251 6.32178C88.5114 6.33768 88.4966 6.35253 88.4829 6.36843L88.4766 6.36207Z" fill="white"/>
<path d="M88.7812 6.16423L88.7358 6.20558C88.738 6.19604 88.738 6.18332 88.7432 6.17801C88.7527 6.16953 88.7675 6.16741 88.7791 6.16211L88.7812 6.16317V6.16423Z" fill="white"/>
<path d="M88.8803 6.0625C88.8468 6.09614 88.8144 6.12979 88.7809 6.16449L88.7788 6.16343C88.8123 6.12979 88.8458 6.0972 88.8803 6.06355V6.0625Z" fill="white"/>
<path d="M90.9926 8.98438C91.0732 8.98858 91.159 8.97386 91.2238 9.03589C91.2406 9.05166 91.2469 9.09898 91.2353 9.11895C91.2228 9.13998 91.1799 9.15996 91.1579 9.15365C91.0742 9.13157 91.0219 9.06954 90.9863 8.99173L90.9926 8.98438Z" fill="white"/>
<path d="M91.4915 9.29004C91.5063 9.30382 91.5211 9.31867 91.5348 9.33245C91.5253 9.33033 91.5126 9.33139 91.5074 9.32609C91.4989 9.31655 91.4958 9.30276 91.4905 9.2911L91.4915 9.29004Z" fill="white"/>
<path d="M91.4918 9.29046C91.4771 9.27668 91.4623 9.26183 91.4475 9.24805C91.457 9.25017 91.4697 9.24911 91.475 9.25547C91.4834 9.26501 91.4866 9.2788 91.4918 9.29046Z" fill="white"/>
</svg>