<svg xmlns="http://www.w3.org/2000/svg" width="124" height="77" viewBox="0 0 124 77" fill="none">
<path d="M52.2143 16.0043V17.1409C52.2143 30.5409 52.2143 43.9408 52.2143 57.3391C52.2143 58.4655 51.6818 58.854 50.5966 58.4892C50.4542 58.4417 50.3083 58.2382 50.2693 58.0804C50.2117 57.8395 50.2422 57.5766 50.2422 57.3221C50.2422 42.7652 50.2388 28.21 50.2541 13.6531C50.2541 13.2493 50.3694 12.5572 50.5712 12.4995C51.129 12.3435 51.7463 12.301 52.2804 12.8388C55.2393 15.8245 58.2338 18.7746 61.2182 21.7365C61.4556 21.9723 61.7032 22.1979 62.0084 22.488C62.3085 22.2149 62.5815 21.9842 62.8342 21.7314C65.7507 18.8221 68.6571 15.9025 71.5855 13.0051C71.8449 12.7472 72.2129 12.491 72.5588 12.4486C73.7101 12.3044 73.7559 12.3774 73.7559 13.5259C73.7559 28.1659 73.7559 42.8076 73.7559 57.4476C73.7559 58.3908 72.8335 58.949 72.0297 58.4451C71.8483 58.3315 71.7957 57.9108 71.7957 57.6325C71.7805 54.445 71.7855 51.2574 71.7855 48.0699C71.7855 44.0358 71.8025 40.0017 71.7618 35.9677C71.7567 35.5198 71.5363 34.9634 71.2243 34.6479C65.1996 28.5815 59.1461 22.544 53.096 16.5031C52.8891 16.2961 52.6568 16.1163 52.4347 15.9246L52.2143 16.0026V16.0043ZM71.6804 31.954V16.0365C68.9894 18.7152 66.3221 21.3701 63.6498 24.03C66.2645 26.6103 68.9538 29.2635 71.6804 31.954Z" fill="white"/>
<path d="M100.406 40.3429C100.406 35.0111 100.504 29.6776 100.379 24.3474C100.243 18.6085 104.598 13.1104 110.873 12.4556C118.492 11.66 123.591 17.6721 123.855 22.9462C123.918 24.2117 123.993 25.4773 123.993 26.7428C124.004 36.984 124.001 47.2235 123.989 57.4648C123.989 57.8007 123.899 58.3978 123.762 58.4249C123.224 58.5301 122.646 58.4928 122.099 58.4131C122.007 58.3995 121.934 57.9194 121.932 57.6548C121.922 53.5359 121.926 49.417 121.926 45.2981C121.926 43.5491 121.904 41.8001 121.936 40.0511C121.948 39.4184 121.719 39.2216 121.101 39.2233C115.146 39.2385 109.191 39.247 103.236 39.2165C102.359 39.2114 102.373 39.6932 102.373 40.2954C102.378 45.9936 102.376 51.6919 102.375 57.3918C102.375 58.4266 101.657 58.9101 100.699 58.4691C100.531 58.391 100.42 58.0178 100.416 57.7786C100.392 56.0585 100.403 54.3366 100.403 52.6164C100.403 48.5264 100.403 44.4346 100.403 40.3446L100.406 40.3429ZM112.125 37.2945C115.06 37.2945 117.995 37.2741 120.929 37.308C121.69 37.3165 121.951 37.1061 121.944 36.3105C121.907 32.2493 121.881 28.1864 121.937 24.1252C122.01 18.8494 117.164 13.9773 111.323 14.4421C107.382 14.7542 102.434 18.298 102.385 24.1286C102.349 28.1898 102.395 32.2527 102.364 36.3139C102.358 37.1095 102.648 37.3182 103.406 37.3097C106.312 37.2724 109.218 37.2945 112.125 37.2945Z" fill="white"/>
<path d="M23.5809 30.4969C23.5809 35.8847 23.4944 41.2725 23.6029 46.6586C23.7318 53.0388 18.4108 57.8634 13.3578 58.4232C7.12284 59.1154 1.31012 55.0406 0.202854 48.8979C0.0790707 48.2091 0.00954865 47.4983 0.00954865 46.7994C-0.00401661 35.6574 -0.00232096 24.5154 0.00954865 13.375C0.00954865 13.0714 0.123158 12.5251 0.248637 12.5065C0.791247 12.4233 1.35929 12.4776 1.91377 12.5268C1.97651 12.5319 2.04264 12.8135 2.0579 12.9713C2.08164 13.2224 2.06638 13.4785 2.06638 13.733C2.06638 24.6477 2.14947 35.5641 2.03077 46.4788C1.97312 51.7886 6.18683 55.7208 10.0818 56.3553C16.6694 57.4274 21.2901 52.2228 21.5071 47.7511C21.5529 46.796 21.6173 45.8392 21.6173 44.8842C21.6258 34.4478 21.6224 24.0115 21.6224 13.5769C21.6224 12.5133 22.2905 12.045 23.2757 12.4708C23.4436 12.5438 23.5622 12.917 23.5673 13.1545C23.5928 14.7339 23.5809 16.3132 23.5809 17.8926C23.5809 22.0946 23.5809 26.2983 23.5809 30.5003V30.4969Z" fill="white"/>
<path d="M57.2007 4.99142C57.1973 2.45359 59.0947 0.541737 61.6196 0.54004C64.1308 0.538344 66.0859 2.47225 66.0876 4.96089C66.0893 7.46649 64.1478 9.42414 61.6569 9.42754C59.1456 9.43093 57.2058 7.50041 57.2024 4.99142H57.2007ZM64.1834 4.99142C64.1868 3.55626 63.0507 2.38065 61.6535 2.37556C60.2681 2.37047 59.0507 3.56644 59.0354 4.94901C59.0201 6.34516 60.1918 7.51568 61.6128 7.52247C63.0931 7.52925 64.1783 6.46051 64.1834 4.99142Z" fill="white"/>
<path d="M50.6892 76.3965C49.5192 75.3448 48.473 74.4033 47.4268 73.4617C47.3403 73.4906 47.2538 73.5194 47.1673 73.5483C47.1673 74.2319 47.2012 74.919 47.1487 75.5992C47.13 75.8435 46.9045 76.0708 46.7739 76.3066C46.6501 76.0725 46.4246 75.8401 46.4178 75.6009C46.3822 74.31 46.4009 73.0156 46.4009 71.4956C47.5946 72.5762 48.6578 73.5381 49.7227 74.5016C49.8007 74.4915 49.8787 74.483 49.9567 74.4728C49.9567 73.7705 49.9262 73.0648 49.9736 72.3659C49.9906 72.1233 50.2025 71.8926 50.3246 71.6568C50.445 71.896 50.6655 72.1318 50.6722 72.3744C50.7079 73.6585 50.6892 74.9427 50.6892 76.3965Z" fill="white"/>
<path d="M30.4772 71.5366C31.6608 72.6138 32.707 73.5672 33.7532 74.5206C33.8414 74.4918 33.9312 74.4646 34.0194 74.4358C34.0194 73.7284 33.9923 73.0193 34.0347 72.3153C34.0482 72.0913 34.2449 71.8776 34.3585 71.6605C34.4908 71.8861 34.7316 72.1083 34.7384 72.3373C34.7757 73.6453 34.757 74.9566 34.757 76.4596C33.5599 75.3705 32.5086 74.4154 31.459 73.4604L31.1995 73.5214C31.1995 74.2237 31.2317 74.9294 31.1809 75.6284C31.1639 75.8591 30.9299 76.0762 30.796 76.2984C30.6891 76.0762 30.4958 75.8557 30.4907 75.6301C30.4619 74.3374 30.4772 73.043 30.4772 71.5366Z" fill="white"/>
<path d="M99.2343 74.4222C99.2343 73.6995 99.2054 72.9769 99.2529 72.2576C99.2665 72.0523 99.4971 71.8589 99.6277 71.6621C99.7379 71.8538 99.938 72.0438 99.943 72.2372C99.9702 73.5757 99.9583 74.9158 99.9583 76.4426C98.7713 75.3671 97.7217 74.4171 96.6738 73.4671C96.5873 73.4926 96.5009 73.518 96.4161 73.5418C96.4161 74.2203 96.4466 74.9006 96.3991 75.5758C96.3822 75.8251 96.1787 76.0609 96.0617 76.3035C95.9345 76.0728 95.7022 75.8455 95.6954 75.6097C95.6598 74.3187 95.6785 73.0243 95.6785 71.5332C96.8603 72.6019 97.9235 73.5655 98.9867 74.5274C99.0698 74.4917 99.1529 74.4561 99.236 74.4205L99.2343 74.4222Z" fill="white"/>
<path d="M78.1197 74.3831C78.5266 75.0243 78.8861 75.5875 79.2439 76.1524C79.1964 76.2254 79.1506 76.2983 79.1032 76.3713C78.8386 76.2288 78.5063 76.1439 78.3232 75.9319C77.9772 75.5298 77.7585 75.0175 77.4058 74.6223C77.2362 74.4323 76.8717 74.3067 76.6173 74.339C76.4749 74.3576 76.3257 74.7427 76.2765 74.9819C76.2155 75.2805 76.2918 75.6045 76.2375 75.9064C76.2104 76.0523 76.0255 76.1711 75.9102 76.3017C75.7831 76.1847 75.5491 76.071 75.5474 75.9506C75.5202 74.6562 75.5118 73.3584 75.5558 72.0641C75.5609 71.9114 75.9102 71.6688 76.1188 71.6468C76.6479 71.5874 77.1871 71.6349 77.7229 71.6315C78.3893 71.6264 78.8946 71.9029 79.0777 72.5509C79.2524 73.1684 79.0845 73.7215 78.5097 74.0947C78.3944 74.1693 78.2876 74.2575 78.118 74.3831H78.1197ZM77.0243 72.1981C76.9242 72.2388 76.4664 72.2812 76.3443 72.5068C76.2019 72.7715 76.2646 73.4585 76.3918 73.5009C76.8683 73.657 77.4143 73.6926 77.9196 73.635C78.1434 73.6095 78.5131 73.2261 78.4876 73.0514C78.4469 72.763 78.1773 72.4661 77.9281 72.2659C77.7873 72.1523 77.4974 72.2235 77.0243 72.1981Z" fill="white"/>
<path d="M69.72 73.9384C69.72 71.6211 69.72 71.6058 72.0058 71.6398C72.3941 71.6448 72.779 71.8518 73.1639 71.9638C72.7841 72.0503 72.4077 72.1572 72.0244 72.2131C71.7481 72.2522 71.4598 72.2454 71.1817 72.2165C70.6154 72.1589 70.3593 72.3573 70.3661 72.963C70.3729 73.5889 70.69 73.7263 71.2241 73.6941C71.6175 73.6721 72.016 73.667 72.4043 73.7077C72.5535 73.7229 72.6874 73.8909 72.8282 73.991C72.679 74.0792 72.5331 74.2319 72.3771 74.2454C71.9295 74.2811 71.4751 74.2811 71.0274 74.2556C70.4678 74.2234 70.3746 74.5525 70.3746 75.0003C70.3746 75.4397 70.4373 75.7807 71.0121 75.7468C71.5446 75.7162 72.0838 75.7196 72.6162 75.7536C72.8028 75.7654 72.9825 75.913 73.1639 75.9978C72.9757 76.1098 72.7909 76.3083 72.5959 76.3185C71.8651 76.3575 71.1325 76.3185 70.4 76.3388C69.8811 76.3541 69.6997 76.1166 69.7167 75.6263C69.737 75.0648 69.7217 74.4999 69.72 73.9384Z" fill="white"/>
<path d="M85.9238 73.4397C85.9238 73.835 85.9492 74.2302 85.9187 74.6238C85.8339 75.6993 85.1556 76.3524 84.0586 76.4491C83.0208 76.539 82.1255 75.9419 81.9627 74.902C81.8203 73.991 81.8288 73.0546 81.8152 72.1284C81.8135 71.974 82.0339 71.8162 82.1526 71.6602C82.2866 71.8332 82.5223 71.9994 82.5375 72.1827C82.5901 72.7696 82.5443 73.3667 82.5698 73.9571C82.5833 74.2913 82.6172 74.6374 82.7224 74.9512C82.9191 75.5382 83.3939 75.7621 83.9856 75.7265C84.6181 75.6891 85.0895 75.3838 85.1607 74.7307C85.2523 73.8943 85.2438 73.0461 85.315 72.2064C85.3303 72.0266 85.5049 71.8603 85.6067 71.6873C85.7186 71.8485 85.9068 72.0028 85.9272 72.1742C85.9746 72.5915 85.9424 73.019 85.9424 73.4414C85.9356 73.4414 85.9289 73.4414 85.9221 73.4414L85.9238 73.4397Z" fill="white"/>
<path d="M63.6715 73.9199C63.6715 73.8351 63.6647 73.7503 63.6715 73.6672C63.7291 73.0123 63.6104 71.9012 63.8868 71.7926C64.5922 71.5144 65.4943 71.5721 66.276 71.718C66.6541 71.7892 67.1595 72.3338 67.2069 72.7138C67.2595 73.1413 66.8949 73.6451 66.6355 74.0692C66.5507 74.2083 66.2319 74.2355 66.0149 74.2558C64.599 74.3949 64.6075 74.3915 64.3938 75.8335C64.3684 76.0031 64.17 76.1473 64.0513 76.3017C63.9258 76.1253 63.7054 75.9556 63.6918 75.7724C63.646 75.1583 63.6749 74.5374 63.6732 73.9182L63.6715 73.9199ZM65.1671 72.1981C65.0687 72.2388 64.6109 72.2863 64.4905 72.5119C64.3497 72.7765 64.4142 73.4619 64.5414 73.5043C65.0178 73.6604 65.5638 73.6943 66.0675 73.6349C66.2896 73.6095 66.6609 73.2227 66.6338 73.0514C66.5897 72.763 66.3184 72.4678 66.0691 72.2676C65.9284 72.154 65.6385 72.2252 65.1671 72.1981Z" fill="white"/>
<path d="M57.8216 76.3713C57.0586 76.1304 56.5686 75.3806 55.5969 75.367C54.5982 75.3535 54.1811 76.1796 53.4112 76.373C53.3536 76.317 53.2959 76.2611 53.2383 76.2034C54.0064 74.6817 54.7745 73.16 55.6173 71.4941C56.4516 73.1532 57.2095 74.6613 57.9692 76.1678C57.92 76.2356 57.8708 76.3018 57.8216 76.3696V76.3713ZM56.5702 74.982C56.243 74.3204 55.9751 73.7843 55.602 73.0311C55.2222 73.8131 54.9662 74.3407 54.6558 74.982H56.5702Z" fill="white"/>
<path d="M25.6513 71.5063C26.5025 73.1824 27.2452 74.6481 28.0846 76.3004C27.0705 76.2919 26.6822 75.291 25.6869 75.364C24.7305 75.4335 24.1794 76.0646 23.4452 76.4361C23.3893 76.3581 23.335 76.2817 23.2791 76.2037C24.0302 74.7177 24.7814 73.2316 25.653 71.5063H25.6513ZM26.6348 74.9823C26.2855 74.3037 26.0209 73.7863 25.653 73.0721C25.2698 73.8152 25.0035 74.3326 24.6695 74.9823H26.6348Z" fill="white"/>
<path d="M104.84 71.5063C105.674 73.1468 106.434 74.643 107.265 76.2767C106.251 76.3852 105.913 75.252 104.882 75.3657C103.958 75.4675 103.363 76.0086 102.651 76.4378C102.593 76.3547 102.536 76.2716 102.478 76.1884C103.241 74.6752 104.004 73.162 104.838 71.5063H104.84ZM104.83 73.0552C104.474 73.8033 104.214 74.3444 103.914 74.9721H105.824C105.483 74.3139 105.211 73.7914 104.828 73.0552H104.83Z" fill="white"/>
<path d="M90.8649 71.508C91.7297 73.2095 92.4877 74.699 93.3321 76.3632C92.2977 76.3055 91.9196 75.3046 90.8887 75.3606C89.9204 75.4115 89.4117 76.1308 88.6419 76.3818C88.5927 76.3208 88.5436 76.258 88.4944 76.1969C89.2456 74.7092 89.9984 73.2214 90.8649 71.5063V71.508ZM91.8637 74.9806C91.4991 74.2851 91.2312 73.7711 90.8463 73.0348C90.4715 73.827 90.2223 74.3546 89.9272 74.9806H91.8654H91.8637Z" fill="white"/>
<path d="M20.9661 75.0685C20.5048 76.178 19.5807 76.6055 18.6464 76.3917C17.4747 76.1237 16.7099 75.2687 16.6048 74.1101C16.5268 73.2449 17.1678 72.1965 18.0224 71.7945C19.0788 71.2991 19.9741 71.484 20.844 72.3899C20.5794 73.0023 20.2522 72.6105 19.93 72.4493C18.7464 71.8555 17.395 72.5901 17.3187 73.8658C17.2746 74.6156 17.5968 75.1805 18.2462 75.5334C18.9007 75.8896 19.5332 75.7946 20.1538 75.3875C20.3912 75.2314 20.6947 75.172 20.9661 75.0685Z" fill="white"/>
<path d="M38.9771 71.6329C39.4553 71.6329 39.9334 71.6092 40.4082 71.6465C40.5574 71.6584 40.6948 71.8314 40.8389 71.9315C40.6982 72.0282 40.5388 72.2233 40.4184 72.2029C39.3857 72.0299 39.3349 72.6423 39.3705 73.404C39.4061 74.1317 39.401 74.8646 39.362 75.5924C39.3501 75.8248 39.1704 76.0487 39.067 76.276C38.9534 76.0589 38.755 75.8451 38.7448 75.6229C38.7058 74.7815 38.7075 73.9384 38.7329 73.0969C38.7516 72.4862 38.6007 72.1028 37.8868 72.2182C37.7494 72.2403 37.5934 72.2538 37.4697 72.2063C37.3374 72.1554 37.234 72.0282 37.1187 71.9349C37.2323 71.8365 37.3425 71.6618 37.4612 71.6533C37.9648 71.6211 38.4718 71.6397 38.9771 71.6397C38.9771 71.638 38.9771 71.6346 38.9771 71.6329Z" fill="white"/>
<path d="M44.068 74.0303C44.068 74.6512 44.0866 75.2721 44.0527 75.8896C44.0442 76.0321 43.8526 76.1627 43.7441 76.3001C43.6135 76.1593 43.3727 76.0202 43.3693 75.876C43.3405 74.6088 43.3422 73.3399 43.3676 72.0709C43.371 71.9318 43.5677 71.7978 43.6763 71.6621C43.8068 71.8029 44.0425 71.9386 44.051 72.0879C44.0934 72.7342 44.0696 73.384 44.068 74.032V74.0303Z" fill="white"/>
</svg>